<?xml version="1.0" encoding="utf-8"?>
<!-- Generator: Adobe Illustrator 21.0.0, SVG Export Plug-In . SVG Version: 6.00 Build 0)  -->
<svg version="1.1" id="Capa_1" xmlns="http://www.w3.org/2000/svg" xmlns:xlink="http://www.w3.org/1999/xlink" x="0px" y="0px"
	 viewBox="0 0 318.3 77.1" style="enable-background:new 0 0 318.3 77.1;" xml:space="preserve">
<style type="text/css">
	.st0{fill:#FFFFFF;}
	.st1{fill:#118CC8;}
	.st2{fill:#1B8CC8;}
	.st3{fill:#F9DE39;}
	.st4{fill:#A0B1BD;}
	.st5{fill:#1188C8;}
</style>
<g>
	<g>
		<g>
			<path class="st0" d="M88.7,54.1c0,1.2-1,2.1-2.2,2.1s-2.1-1-2.1-2.1c0-1.2,1-2.1,2.1-2.1C87.7,51.9,88.7,52.9,88.7,54.1z"/>
			<path class="st0" d="M174.6,18.8c0,1.2-1,2.1-2.1,2.1c-1.2,0-2.1-1-2.1-2.1s1-2.1,2.1-2.1S174.6,17.7,174.6,18.8z"/>
			<path class="st0" d="M140.6,70.1c0,2.1-1.7,3.7-3.8,3.7s-3.8-1.7-3.8-3.7c0-2.1,1.7-3.7,3.8-3.7C138.8,66.4,140.6,68,140.6,70.1z
				"/>
			<path class="st0" d="M162.3,26.2c0,1.2-1,2.1-2.1,2.1c-1.2,0-2.1-0.9-2.1-2.1c0-1.2,1-2.1,2.1-2.1C161.3,24,162.3,25,162.3,26.2z
				"/>
			<path class="st0" d="M316.6,28.6c0,2.1-1.7,3.7-3.8,3.7c-2.1,0-3.8-1.6-3.8-3.7c0-2.1,1.7-3.7,3.8-3.7
				C314.9,24.9,316.6,26.6,316.6,28.6z"/>
			<g>
				<g>
					<g>
						<path class="st0" d="M308.5,18.8c-2.5-1.4-5.9-2.6-10.5-3.6c-1.6-0.4-4.7-0.8-9.2-1.3c-1.8-0.2-3.9-0.4-6.1-0.6
							c-1-0.1-1.9,0.2-2.7,0.9s-1.2,1.5-1.3,2.5l-0.2,2c-3-0.7-6.2-1.4-9.6-2.1c-1-0.2-2,0-2.8,0.6c-0.8,0.5-1.4,1.5-1.5,2.5
							c-0.2,1-0.3,1.9-0.4,2.7c-3.7-3.1-6.8-6-9.3-8.5c-1-0.9-2.4-1.3-3.7-0.9c-1.3,0.4-2.2,1.5-2.5,2.8l-3.5,20.6l-12.8-20.6
							c-0.6-1-1.6-1.6-2.7-1.7c-0.7-0.9-1.8-1.4-2.9-1.4c-1.3,0-2.4,0.7-3.1,1.8l-13.9,23.3c-0.2-0.7-0.4-1.4-0.5-2.1
							c-0.5-1.7-2.1-2.8-3.8-2.7c-0.8-1-2-1.6-3.4-1.4l-1,0.1c-0.7-6.1-1.2-11-1.6-14.3c-0.3-2-2-3.4-3.9-3.2c-0.8-1-2-1.6-3.3-1.4
							c-5.6,0.7-9.3,1.2-10.7,1.4c-1.9,0.4-3.2,2.1-3,4.1c0,0.2,0.1,0.3,0.1,0.4c-0.9-1-1.7-1.8-2.2-2.3c-0.7-0.7-1.6-1.2-2.6-1.2
							l0,0c-0.2,0-0.5,0.1-0.7,0.1c-0.4-0.2-0.9-0.3-1.4-0.3c-1,0-1.9,0.4-2.6,1.1c-2.2,2.3-4.2,4.2-5.8,5.8c-1.9-3.5-3.2-5.8-4-7.1
							c-0.5-0.9-1.4-1.5-2.5-1.7c-0.1,0-0.1,0-0.2,0c-0.3-0.2-0.5-0.2-0.9-0.3c-1-0.2-2.1,0.1-2.9,0.7c-1.6,1.2-3.8,2.7-6.5,4.4
							c-0.4-0.5-0.9-0.9-1.4-1.4c-3.1-2.5-7.1-3.8-12.1-3.8c-3.1-0.1-8.3,0.5-15.8,1.9c-0.7,0.1-1.4,0.5-1.9,1
							c-2.9-1.9-6.6-2.9-10.9-3c-3.1-0.1-8.3,0.5-15.8,1.9c-1,0.2-1.8,0.8-2.4,1.6c-0.5,0.8-0.8,1.9-0.5,2.8c0.9,4.4,1.8,9,2.7,13.8
							L77.7,15.8c-0.6-1-1.6-1.6-2.7-1.7c-0.7-0.9-1.8-1.4-2.8-1.4c-1.3,0-2.4,0.7-3.1,1.8L56.7,35.4c-0.2-2.4-0.3-5-0.5-7.8
							c-0.5-9.2-1-16.1-1.6-21.1c-0.2-1.9-1.8-3.3-3.7-3.3c-0.1,0-0.1,0-0.2,0c-0.7-1.2-2-2-3.5-1.9C40,2,34.9,2.4,31.5,2.8
							c-1,0.1-1.9,0.6-2.5,1.4C28.4,5,28.1,6,28.2,7c0.3,2.8,0.6,5.3,0.8,7.3l-1,0.1c-0.3-2.2-0.5-4.3-0.6-5.7
							c-0.1-1-0.5-1.9-1.3-2.5c-0.7-0.6-1.7-0.9-2.6-0.8c-0.7-1.2-2.1-1.9-3.5-1.8c-4.3,0.5-9.4,0.9-15,1.3C4,5,3.1,5.4,2.4,6.3
							S1.5,8.1,1.6,9.1c1,5.7,1.6,12.8,2.2,20.9c0.5,6.8,1,13.8,1.5,21.1c0.2,2,1.8,3.5,3.8,3.5c0.1,0,0.1,0,0.1,0
							c0.7,1.1,1.8,1.9,3.1,1.9c0.1,0,0.1,0,0.2,0c3.9-0.2,9.4-0.7,16.2-1.4c2-0.2,3.4-2,3.2-4V51c0.7,0.9,1.8,1.4,3,1.4
							c0.1,0,0.1,0,0.1,0c0.2,0.3,0.4,0.6,0.7,0.9c0.8,0.7,1.8,1,2.7,1c7-0.5,12.4-1,16-1.4c0.9-0.1,1.6-0.5,2.2-1.1l9.3,2.5
							c1.6,0.4,3.3-0.3,4.1-1.8l2.2-3.9l4.8,0.1c0.8,1.1,1.4,2,2,2.9c0.7,1,1.8,1.6,3,1.6l0,0c0.9,1.1,2.4,1.5,3.8,1.1l6.8-2.1
							c0.3,0.3,0.7,0.4,1.2,0.6c0.7,1.2,2,1.8,3.5,1.6c2.3-0.2,5.5-0.8,9.6-1.7c1.9-0.4,3.1-2.2,2.8-4.2c-0.3-2-0.6-3.6-0.9-5
							c3.5-1.6,6.2-3.7,8.4-6.3c0.2-0.2,0.3-0.4,0.4-0.5c0.8,4.3,1.5,8.7,2.1,13.2c0.2,1.4,1.3,2.6,2.5,3c0.7,1.2,2,1.8,3.4,1.6
							c2.3-0.2,5.5-0.8,9.6-1.7c1.9-0.4,3.1-2.2,2.8-4.2s-0.6-3.7-0.9-5c3.5-1.6,6.2-3.7,8.4-6.3c0.9-1.1,1.7-2.2,2.4-3.4
							c1.2,2.2,2.2,4.2,3.1,5.9c-0.4,2.7-0.9,6.5-1,7c-0.2,1.1,0.1,2.2,0.7,3.1c0.2,0.2,0.3,0.4,0.5,0.5c0.2,0.5,0.4,1,0.7,1.4
							c0.7,0.8,1.6,1.3,2.7,1.3c1.6,0.1,3.3,0.2,5.2,0.5c0.8,0.1,2.7,0.5,5.6,1c1,0.2,2-0.1,2.8-0.7c0.8-0.6,1.3-1.5,1.5-2.5
							c0.4-3.4,0.8-6,1.1-7.8c4.2-4.1,7.3-7.1,9.7-9.4c0.8,6.5,1.3,11.7,1.7,15.7c0.1,1,0.6,1.9,1.4,2.6c0.7,0.5,1.6,0.8,2.6,0.8
							c0.2,0.3,0.4,0.5,0.7,0.7c0.8,0.6,1.8,0.9,2.7,0.7c8.4-1.2,14.8-2.1,19.1-2.5c0.5-0.1,1-0.2,1.5-0.5c0.3,0.2,0.5,0.3,0.8,0.3
							l9.7,2.6c1.6,0.4,3.3-0.3,4.1-1.8l2.2-3.9l4.7,0.1c0.7,1,1.3,2,2,2.9c0.7,1,1.8,1.6,3,1.6l0,0c0.9,1.1,2.4,1.5,3.8,1.1
							l8.6-2.7c0.9-0.3,1.7-0.9,2.1-1.8l8.2,1.2c2,0.3,3.8-1.1,4.1-3.1c0.1-0.5,0.2-1,0.2-1.5l10.2,7.4c1,0.7,2.3,0.9,3.5,0.4
							c1-0.4,1.8-1.2,2.1-2.2h0.1c0,0.1,0.1,0.1,0.1,0.1c0.6,0.9,1.6,1.4,2.6,1.5c1.5,0.2,3.1,0.2,4.6,0.2h0.1
							c7.5,0,14-1.5,19.3-4.4c6.8-3.7,10.5-9.4,10.5-16.4C317.1,26.8,314.2,22,308.5,18.8z"/>
						<path class="st0" d="M12.3,57.6c-1.5,0-2.9-0.7-3.9-1.9C5.9,55.5,4,53.5,3.8,51c-0.6-7.3-1.1-14.2-1.6-21.1
							c-0.6-8.1-1.3-15-2.1-20.7c-0.2-1.4,0.2-2.8,1.1-3.9s2.2-1.8,3.6-1.9C10.3,3,15.4,2.6,19.7,2.1c1.7-0.2,3.3,0.5,4.4,1.8
							c1,0.1,2,0.5,2.8,1.2L27,5.2c0.2-0.7,0.5-1.3,0.9-1.8c0.8-1.1,2.1-1.8,3.5-1.9C34.8,1.2,40,0.7,47.2,0
							c1.7-0.2,3.3,0.5,4.3,1.9C53.9,2.1,55.8,4,56,6.4c0.5,5,1,11.9,1.6,21.2c0.1,1.2,0.2,2.2,0.2,3.3l10.1-17
							c0.9-1.5,2.5-2.5,4.2-2.5h0.1c1.3,0,2.5,0.5,3.5,1.4c1.3,0.3,2.5,1.1,3.2,2.3l6.7,10.8c-0.4-2.2-0.9-4.3-1.3-6.4
							c-0.3-1.4,0-2.8,0.8-3.9c0.8-1.2,2-1.9,3.3-2.2c7.2-1.3,12.3-2,15.6-2h0.4c4.2,0.1,7.8,1,10.8,2.7c0.5-0.3,1.2-0.5,1.8-0.7
							c7.2-1.3,12.3-2,15.6-2h0.5c5.3,0.1,9.6,1.5,12.9,4.2c0.3,0.2,0.5,0.4,0.8,0.7c2.3-1.5,4.1-2.7,5.5-3.8c1.2-0.9,2.6-1.2,4-0.9
							c0.3,0.1,0.7,0.2,1,0.3l0,0c1.4,0.2,2.6,1.1,3.4,2.4c0.7,1.2,1.7,3,3.2,5.5c1.3-1.3,2.8-2.8,4.5-4.4c0.9-0.9,2.2-1.5,3.6-1.5
							c0.5,0,1,0.1,1.5,0.3c0.2,0,0.4-0.1,0.5-0.1c1.4,0,2.7,0.5,3.7,1.6c0.1,0.1,0.2,0.2,0.2,0.2c0.7-1.4,2-2.6,3.7-2.8
							c1.5-0.3,5-0.8,10.8-1.4c1.5-0.2,3,0.4,4.1,1.4c2.4,0.1,4.4,2,4.7,4.5c0.3,2.8,0.8,6.7,1.5,12.9c1.4-0.1,2.8,0.5,3.8,1.5
							c1.8,0.1,3.3,1.2,4.2,2.8l12.2-20.6c0.9-1.5,2.5-2.5,4.2-2.5l0,0c1.4,0,2.7,0.5,3.6,1.5c1.3,0.3,2.5,1.1,3.2,2.3l10.7,17.4
							l2.9-16.9c0.3-1.9,1.6-3.4,3.4-4c1.8-0.5,3.7-0.1,5,1.2c2.1,2,4.5,4.3,7.3,6.8l0.1-0.2c0.2-1.4,1-2.6,2.1-3.4s2.5-1.1,3.8-0.8
							c2.8,0.5,5.6,1.2,8.1,1.7l0.1-0.4c0.1-1.4,0.7-2.6,1.8-3.5c1-0.9,2.4-1.3,3.7-1.2c2.2,0.2,4.3,0.4,6.1,0.6
							c4.5,0.5,7.6,0.9,9.3,1.3c4.7,1,8.3,2.2,10.8,3.7c6.1,3.5,9.3,8.8,9.2,15.3c-0.1,7.5-4,13.6-11.3,17.6
							c-5.5,3.1-12.3,4.6-20,4.6c-1.6,0-3.2-0.1-4.8-0.2c-0.8-0.1-1.6-0.4-2.3-0.9c-0.5,0.5-1.2,1-1.9,1.3c-1.6,0.6-3.4,0.4-4.8-0.6
							l-8.4-6.1c-0.7,2.4-3,3.9-5.5,3.6l-7.4-1c-0.6,0.8-1.5,1.4-2.4,1.6l-8.6,2.7c-1.7,0.5-3.6,0.1-4.8-1c-1.5-0.2-2.7-1-3.6-2.2
							c-0.5-0.7-1-1.5-1.5-2.3l-3.2-0.1l-1.8,3.2c-1.1,2-3.5,3-5.7,2.4l-9.7-2.6c-0.2-0.1-0.3-0.1-0.5-0.2c-0.4,0.2-0.9,0.3-1.3,0.3
							c-4.3,0.4-10.7,1.3-19,2.5c-1.4,0.2-2.7-0.2-3.8-1c-0.2-0.1-0.3-0.3-0.4-0.4c-1-0.1-2-0.4-2.8-1c-1.1-0.9-1.8-2.1-2-3.6
							c-0.3-3.4-0.8-7.7-1.4-12.9c-2,1.9-4.4,4.3-7.3,7.1c-0.3,1.8-0.6,4.2-1,7.3c-0.2,1.4-0.9,2.6-2,3.5s-2.5,1.2-3.9,0.9
							c-2.8-0.5-4.7-0.9-5.5-1c-1.8-0.3-3.5-0.4-5-0.4c-1.4-0.1-2.8-0.7-3.7-1.9c-0.4-0.4-0.7-0.9-0.8-1.5c-0.2-0.2-0.3-0.3-0.4-0.4
							c-0.9-1.2-1.3-2.7-1-4.2c0.1-0.2,0.2-1.2,0.9-6.5l-1.8-3.3c-0.4,0.5-0.8,1-1.2,1.5c-2.1,2.4-4.7,4.5-7.9,6.1
							c0.2,1.2,0.4,2.5,0.7,4c0.4,2.7-1.3,5.3-3.9,5.8c-4.2,0.9-7.5,1.5-9.8,1.7c-1.7,0.2-3.4-0.5-4.4-1.9c-1.6-0.7-2.7-2.2-3-3.9
							c-0.5-3.5-1.1-6.9-1.6-10.3c-1.8,1.8-3.9,3.3-6.4,4.5c0.2,1.2,0.4,2.5,0.7,4.1c0.4,2.7-1.3,5.3-3.9,5.8
							c-4.2,0.9-7.5,1.5-9.8,1.7C95.6,55.7,94,55,93,53.6c-0.2-0.1-0.3-0.2-0.4-0.2l-6.2,2c-1.6,0.5-3.6,0.1-4.8-1
							c-1.4-0.2-2.7-1-3.6-2.2c-0.5-0.7-1-1.4-1.5-2.3l-3.6,0l-1.8,3.2c-1.1,2-3.5,3-5.7,2.5l-8.5-2.3c-0.7,0.5-1.5,0.8-2.4,0.9
							c-3.6,0.4-9,0.9-16.1,1.4c-1.4,0.1-2.8-0.4-3.8-1.4c-0.2-0.2-0.3-0.3-0.5-0.5c-0.4-0.1-0.9-0.2-1.3-0.3
							c-0.7,1.6-2.2,2.8-4.1,3.1c-6.8,0.8-12.4,1.3-16.3,1.4C12.4,57.6,12.4,57.6,12.3,57.6z M9.8,52.9l0.5,0.7
							c0.4,0.7,1.2,1.2,1.9,1.2v1.4l0.1-1.4c3.9-0.2,9.4-0.7,16.2-1.4c1.2-0.2,2.1-1.2,2-2.5l-0.4-4.6l2.8,3.5
							c0.4,0.5,1,0.9,1.8,0.9h1l0.4,0.7c0.1,0.2,0.3,0.4,0.4,0.5c0.4,0.4,1.1,0.7,1.7,0.6c7.1-0.5,12.4-1,16-1.4
							c0.5-0.1,1-0.3,1.4-0.7l0.5-0.6l10.1,2.7c1,0.3,2-0.2,2.5-1.1l2.6-4.7l6.3,0.1l0.4,0.6c0.8,1.1,1.4,2.1,2,2.9
							c0.4,0.7,1.1,1,1.9,1h0.7l0.4,0.5c0.6,0.7,1.5,0.9,2.4,0.7l7.5-2.4l0.6,0.4c0.2,0.2,0.4,0.3,0.7,0.4l0.5,0.2l0.3,0.4
							c0.4,0.7,1.3,1.1,2.1,1c2.2-0.2,5.4-0.8,9.5-1.6c1.2-0.3,1.9-1.4,1.8-2.6c-0.3-2-0.6-3.7-0.8-5l-0.2-1.1l1-0.5
							c3.2-1.6,5.9-3.6,7.9-5.9c0.2-0.2,0.3-0.3,0.4-0.5l1.9-2.4l0.5,3.1c0.8,4.3,1.5,8.8,2.1,13.2c0.1,0.9,0.7,1.6,1.6,1.9l0.5,0.2
							l0.3,0.4c0.4,0.7,1.3,1.1,2.1,1c2.2-0.2,5.4-0.8,9.5-1.6c1.2-0.3,1.9-1.4,1.8-2.6c-0.3-2-0.6-3.6-0.9-5l-0.2-1.1l1-0.5
							c3.2-1.6,5.9-3.6,7.9-5.9c0.9-1,1.6-2.1,2.2-3.2l1.3-2.3l4.5,8.6l-0.1,0.4c-0.9,6.4-1,6.9-1,7.1c-0.2,0.7,0,1.4,0.4,1.9
							c0.1,0.1,0.2,0.2,0.3,0.3l0.3,0.3l0.1,0.4c0.1,0.3,0.2,0.6,0.4,0.8c0.4,0.5,1,0.8,1.7,0.8c1.6,0.1,3.5,0.2,5.4,0.5
							c0.9,0.2,2.7,0.5,5.6,1c0.6,0.1,1.3-0.1,1.7-0.4c0.5-0.4,0.8-0.9,0.9-1.5c0.4-3.4,0.8-6,1.1-7.9l0.1-0.5L170,42
							c4.2-4.1,7.4-7.2,9.7-9.4l2-1.9l0.3,2.8c0.8,6.4,1.3,11.7,1.7,15.7c0.1,0.6,0.4,1.2,0.9,1.6c0.4,0.3,1,0.5,1.6,0.4l0.8-0.1
							l0.5,0.6c0.1,0.2,0.3,0.3,0.4,0.4c0.5,0.4,1.1,0.5,1.7,0.4c8.4-1.2,14.8-2.1,19.2-2.5c0.3-0.1,0.6-0.1,0.9-0.3l0.7-0.4
							l0.7,0.4c0.2,0.1,0.3,0.2,0.5,0.2l9.7,2.6c1,0.3,2-0.2,2.5-1.1l2.6-4.7l6.3,0.1l0.4,0.6c0.7,1,1.4,2,2,2.9
							c0.4,0.7,1.1,1,1.9,1h0.6l0.4,0.5c0.6,0.7,1.5,0.9,2.4,0.7l8.6-2.7c0.6-0.2,1-0.6,1.3-1.2l0.4-0.9l9.2,1.3
							c1.3,0.2,2.4-0.7,2.5-1.9c0.1-0.5,0.2-1,0.2-1.5l0.4-2.2l12,8.7c0.6,0.4,1.4,0.5,2.1,0.3c0.6-0.2,1.1-0.7,1.3-1.4l0.4-1
							l1.9,0.2l0.3,0.5c0.4,0.5,1,0.9,1.6,1c1.5,0.2,3,0.2,4.4,0.2c7.3,0,13.6-1.4,18.8-4.3c6.3-3.5,9.7-8.8,9.8-15.2
							c0.1-5.4-2.6-9.9-7.7-12.8c-2.4-1.3-5.6-2.5-10.1-3.4c-1.6-0.3-4.5-0.8-9-1.3c-1.8-0.2-3.8-0.4-6.1-0.6
							c-0.6-0.1-1.2,0.2-1.6,0.5c-0.4,0.4-0.7,1-0.8,1.5L280,20l-1.6-0.4c-2.9-0.7-6.1-1.4-9.6-2c-0.6-0.1-1.2,0-1.7,0.4
							c-0.5,0.3-0.8,0.9-0.9,1.5l-0.8,5.2l-1.9-1.6c-3.7-3.1-6.8-6-9.4-8.5c-0.6-0.6-1.5-0.8-2.2-0.5c-0.8,0.3-1.4,0.9-1.5,1.8
							L246.2,40l-14.7-23.7c-0.4-0.6-1-1-1.7-1l-0.6-0.1l-0.4-0.4c-0.4-0.5-1-0.8-1.8-0.8s-1.5,0.4-1.9,1.1l-15.6,26.2l-0.8-3.2
							c-0.2-0.7-0.4-1.4-0.5-2.1c-0.3-1-1.3-1.8-2.4-1.6l-0.8,0.1l-0.4-0.6c-0.5-0.7-1.3-1-2.1-0.9l-2.4,0.3l-0.2-1.4
							c-0.8-7-1.3-11.3-1.6-14.3c-0.2-1.2-1.2-2.1-2.5-2l-0.8,0.1l-0.5-0.6c-0.5-0.7-1.3-1-2-0.9c-5.6,0.7-9.2,1.1-10.6,1.4
							c-1.2,0.2-2,1.3-1.8,2.5l0.5,4.5l-2.9-2.9c-0.9-1-1.7-1.8-2.2-2.4c-0.4-0.4-1-0.7-1.6-0.7c-0.2,0-0.3,0-0.4,0.1l-0.4,0.1
							l-0.4-0.2c-0.3-0.1-0.5-0.2-0.9-0.2c-0.6,0-1.2,0.2-1.6,0.7c-2.2,2.3-4.2,4.2-5.8,5.8l-1.3,1.3l-0.9-1.6
							c-1.9-3.4-3.2-5.7-4-7.1c-0.3-0.5-0.9-0.9-1.5-1l-0.5-0.2c-0.2-0.1-0.4-0.2-0.5-0.2c-0.6-0.1-1.3,0.1-1.8,0.4
							c-1.6,1.3-3.8,2.7-6.6,4.5l-1,0.6l-0.8-0.9c-0.4-0.4-0.8-0.8-1.3-1.2c-2.8-2.2-6.6-3.5-11.2-3.5h-0.4c-3.1,0-8,0.6-15.1,1.9
							c-0.4,0.1-0.9,0.3-1.2,0.6l-0.8,0.8l-0.9-0.6c-2.7-1.8-6.1-2.7-10.1-2.7h-0.4C101,14,96,14.6,89,15.9c-0.6,0.1-1.2,0.4-1.5,1
							c-0.3,0.5-0.4,1.2-0.3,1.8c0.9,4.4,1.8,9,2.7,13.8l1.3,7.2L76.6,16.4c-0.4-0.6-1-1-1.7-1l-0.6-0.1l-0.4-0.4
							c-0.4-0.5-1-0.8-1.7-0.8c-0.9,0-1.6,0.4-2,1.1L55.6,39.8l-0.3-4.5c-0.2-2.4-0.3-5-0.5-7.8c-0.5-9.3-1-16.1-1.6-21.1
							c-0.1-1.2-1.1-2-2.3-2l-1,0.1l-0.5-0.7C49,3,48.1,2.6,47.3,2.6C40.1,3.3,35,3.7,31.6,4.1C31,4.2,30.4,4.5,30.1,5
							s-0.5,1.1-0.5,1.7c0.4,2.8,0.7,5.3,0.8,7.4l0.1,1.4l-3.8,0.4l-0.2-1.4c-0.3-2.2-0.5-4.3-0.6-5.8c-0.1-0.6-0.3-1.2-0.8-1.6
							c-0.4-0.4-1-0.5-1.6-0.5l-0.9,0.1L22.2,6c-0.4-0.8-1.3-1.2-2.2-1.1c-4.4,0.5-9.5,0.9-15,1.3C4.4,6.3,3.8,6.5,3.4,7
							S2.9,8.2,2.9,8.8C3.7,14.4,4.4,21.5,5,29.6c0.5,6.8,1,13.8,1.5,21.1c0.1,1.2,1.1,2.1,2.2,2.1L9.8,52.9z M280.4,53.4l0.8,0.1
							l-0.2-1.2C280.8,52.6,280.6,53,280.4,53.4z"/>
					</g>
					<g>
						<path class="st0" d="M311,51.8c0,1.9-1.5,3.5-3.5,3.5s-3.5-1.6-3.5-3.5s1.5-3.5,3.5-3.5C309.4,48.3,311,49.9,311,51.8z"/>
						<path class="st1" d="M307.4,51.8c0.1,0,0.1-0.1,0.2-0.2c0.1-0.1,0.1-0.2,0.1-0.4s-0.1-0.3-0.3-0.3L307.4,51.8L307.4,51.8z
							 M307.4,52.3V53h-0.5v-2.6h0.5c0.2,0,0.4,0.1,0.6,0.2c0.2,0.1,0.3,0.3,0.3,0.5s-0.1,0.4-0.2,0.5s-0.2,0.2-0.3,0.3
							c0.1,0.1,0.1,0.1,0.2,0.1s0.1,0.1,0.2,0.2c0.1,0.2,0.2,0.4,0.2,0.7h-0.5c0-0.2-0.1-0.3-0.1-0.4c-0.1-0.1-0.1-0.2-0.1-0.2
							C307.5,52.4,307.5,52.3,307.4,52.3z M308.9,51.8c0-0.5-0.2-0.9-0.4-1.3c-0.3-0.3-0.6-0.5-1-0.5s-0.8,0.2-1,0.5
							c-0.3,0.3-0.4,0.7-0.4,1.3s0.2,0.9,0.4,1.3c0.3,0.3,0.6,0.5,1,0.5s0.7-0.2,1-0.5C308.8,52.7,308.9,52.3,308.9,51.8z
							 M307.5,54.2c-0.7,0-1.2-0.3-1.5-0.7c-0.4-0.4-0.6-1-0.6-1.7s0.2-1.2,0.6-1.7c0.4-0.4,0.9-0.7,1.5-0.7c0.7,0,1.2,0.3,1.5,0.7
							c0.4,0.4,0.6,1,0.6,1.7s-0.2,1.3-0.6,1.7S308.1,54.2,307.5,54.2z"/>
						<g>
							<path class="st2" d="M12.3,54.3c-0.9,0-1.8-0.7-1.9-1.7v-0.2c-0.5,0-1,0.1-1.5,0.1c-1,0.1-1.9-0.7-1.9-1.8
								C6.5,44,6,36.8,5.5,29.6C4.8,21.5,4.1,14.5,3.3,8.8c-0.1-0.5,0.1-1,0.4-1.5c0.4-0.4,0.8-0.7,1.4-0.7
								c5.6-0.4,10.7-0.8,15.1-1.3c1-0.1,1.9,0.5,2,1.6l0.1,0.4l1.4-0.2c0.5-0.1,1,0.1,1.4,0.4c0.4,0.3,0.7,0.8,0.7,1.3
								c0.2,1.8,0.4,4.3,0.8,7.5l4.5-0.4c-0.2-2.4-0.5-5.5-1-9.2c-0.1-0.5,0.1-1,0.4-1.4c0.3-0.4,0.8-0.7,1.3-0.7
								c3.4-0.3,8.5-0.8,15.7-1.5c1-0.1,1.9,0.7,2,1.7V5c0.5-0.1,1-0.1,1.5-0.1h0.1c1,0,1.8,0.7,1.9,1.7c0.4,4.9,1,11.8,1.5,21
								c0.3,5.3,0.6,9.9,0.9,13.5l15.3-25.8c0.3-0.5,0.9-0.9,1.6-0.9l0,0c0.7,0,1.2,0.3,1.6,0.9l0.4,0.6c0.2-0.1,0.4-0.1,0.5-0.1
								l0,0c0.7,0,1.2,0.3,1.6,0.9l15.5,24.9c-1.3-7.9-2.7-15.6-4.2-22.8c-0.1-0.5,0-1,0.3-1.4s0.7-0.7,1.2-0.8
								c7.3-1.4,12.4-2,15.4-1.9c4.5,0.1,8.3,1.2,11,3.5c0.2,0.2,0.4,0.4,0.7,0.5c-0.1-0.4,0.1-0.9,0.3-1.3c0.3-0.4,0.7-0.7,1.2-0.8
								c7.3-1.4,12.4-2,15.4-1.9c4.5,0.1,8.3,1.2,11,3.5c0.9,0.7,1.6,1.5,2.1,2.3c3.4-2.1,6.1-3.9,8-5.4c0.4-0.3,1-0.4,1.5-0.3
								c0.3,0.1,0.5,0.2,0.7,0.3c0.1,0,0.2,0,0.4,0.1c0.5,0.1,1,0.4,1.3,0.9c0.9,1.5,2.6,4.4,5.1,9.1c2-1.9,4.5-4.4,7.5-7.4
								c0.3-0.3,0.8-0.5,1.3-0.5l0,0c0.4,0,0.9,0.2,1.2,0.5c0.3-0.2,0.6-0.3,0.9-0.3c0.5,0,1,0.2,1.4,0.6c1.1,1.2,3,3.1,5.9,6
								c-0.2-1.8-0.4-3.7-0.7-5.6c-0.1-1,0.5-1.9,1.5-2.1c1.4-0.3,4.8-0.7,10.6-1.4c1-0.1,1.9,0.6,2,1.6l1.2-0.1
								c1-0.1,1.9,0.6,2,1.6c0.4,3.7,1.1,9.1,1.9,16.1l2.8-0.4c0.9-0.1,1.8,0.5,2,1.4l0.1,0.2l1.2-0.1c0.9-0.1,1.8,0.5,2,1.4
								c0.7,2.4,1.2,4.4,1.6,6.4L225.8,16c0.3-0.5,0.9-0.9,1.5-0.9c0.7,0,1.3,0.3,1.6,0.9l0.4,0.6c0.2-0.1,0.4-0.1,0.5-0.1
								c0.7,0,1.3,0.3,1.6,0.9l15.2,24.4l4.3-25.1c0.1-0.7,0.6-1.3,1.3-1.5c0.7-0.2,1.4-0.1,1.9,0.4c3.1,3.1,7.1,6.6,11.8,10.6
								c0.2-1.5,0.5-3.5,0.9-5.9c0.1-0.5,0.4-0.9,0.8-1.3c0.4-0.3,0.9-0.4,1.4-0.3c3.7,0.8,7.3,1.5,10.5,2.2c0.4,0.1,0.8,0.4,1,0.7
								l0.4-4.6c0.1-0.5,0.3-1,0.7-1.3c0.4-0.3,0.9-0.5,1.4-0.4c2.2,0.2,4.3,0.4,6.1,0.6c4.4,0.5,7.4,0.9,9,1.2
								c4.4,0.9,7.7,2.1,10,3.3c5.1,2.8,7.6,7.1,7.5,12.4c-0.1,6.4-3.3,11.4-9.6,14.8c-5.1,2.8-11.3,4.2-18.5,4.2h-0.1
								c-1.5,0-3-0.1-4.4-0.2c-0.5-0.1-1-0.3-1.3-0.8c-0.2-0.3-0.3-0.5-0.3-0.8h-0.8c-0.5,0-1-0.2-1.4-0.6c-0.1-0.2-0.2-0.3-0.3-0.5
								c-0.2,0.7-0.3,1.4-0.4,2s-0.5,1.2-1.2,1.4c-0.6,0.2-1.3,0.2-1.8-0.2l-12.9-9.2c-0.3,1.6-0.5,3-0.7,4.4
								c-0.2,1-1.1,1.7-2.1,1.6l-9.9-1.4c0.1,0.3,0.1,0.7-0.1,1c-0.2,0.5-0.7,1-1.2,1.2l-8.6,2.7c-0.8,0.2-1.6-0.1-2-0.7
								c-0.2-0.2-0.3-0.4-0.5-0.7l-0.1,0.1c-0.8,0.3-1.7,0-2.1-0.7c-0.8-1.2-1.6-2.5-2.5-3.7l-6.7-0.1l-2.7,4.9
								c-0.4,0.8-1.3,1.1-2.1,0.9l-9.8-2.6c-0.5-0.2-1-0.5-1.2-1v-0.1l-0.2-0.1c-0.1,0.2-0.2,0.4-0.3,0.5c-0.3,0.4-0.8,0.7-1.3,0.7
								c-4.3,0.4-10.8,1.3-19.2,2.5c-0.5,0.1-1-0.1-1.4-0.4c-0.4-0.3-0.7-0.8-0.7-1.3l0,0l-1,0.3c-0.5,0.1-1-0.1-1.4-0.4
								s-0.7-0.8-0.7-1.3c-0.4-4.7-1.2-11.1-2.1-19.3c-2.5,2.3-6.6,6.2-12.7,12.3c-0.3,1.9-0.7,4.7-1.2,8.5c-0.1,0.5-0.3,1-0.8,1.3
								c-0.4,0.3-0.9,0.4-1.4,0.3c-2.8-0.5-4.8-0.9-5.6-1c-2-0.3-3.8-0.4-5.4-0.5c-0.5,0-1-0.3-1.4-0.7c-0.3-0.4-0.4-0.8-0.4-1.3
								c-0.3-0.1-0.5-0.3-0.8-0.6c-0.3-0.4-0.5-1-0.4-1.5s0.6-4.1,1.1-7.7c-1.3-2.5-3.1-5.9-5.2-10c-0.5,2.3-1.6,4.5-3.4,6.6
								c-2.2,2.6-5.3,4.8-9,6.4c0.3,1.6,0.7,3.7,1.2,6.4c0.2,1-0.5,1.9-1.4,2.1c-4.1,0.9-7.2,1.4-9.5,1.6c-0.9,0.1-1.8-0.5-2-1.5
								c-1,0.1-1.9-0.6-2-1.6c-0.9-6.2-1.9-12.2-3-18c-0.6,1.5-1.5,3-2.7,4.4c-2.2,2.6-5.3,4.8-9.1,6.4c0.3,1.7,0.7,3.9,1.2,6.4
								c0.2,1-0.5,1.9-1.4,2.1c-4.1,0.9-7.2,1.4-9.5,1.6c-1,0.1-1.8-0.5-2-1.5c-0.8,0.1-1.5-0.3-1.8-1l-7.9,2.5
								c-0.8,0.2-1.6-0.1-2-0.7c-0.2-0.2-0.3-0.4-0.5-0.7l-0.1,0.1c-0.8,0.3-1.7,0-2.1-0.7c-0.7-1.1-1.5-2.2-2.5-3.7l-6.7-0.1
								L68.9,51c-0.4,0.8-1.3,1.1-2.1,0.9L57,49.3c-0.3-0.1-0.5-0.2-0.8-0.4c-0.1,0.8-0.8,1.5-1.6,1.6c-3.6,0.4-9,0.9-15.9,1.4
								c-0.5,0.1-1-0.2-1.4-0.5c-0.4-0.4-0.6-0.9-0.6-1.4v-0.1c-0.5,0.1-1,0.1-1.5,0.1c-1,0.1-1.9-0.8-1.9-1.8
								c-0.2-3.8-0.3-7.1-0.6-9.6c-0.9,0.1-2,0.2-3.1,0.3l1,11.8c0.1,1-0.7,1.9-1.6,2c-6.8,0.8-12.3,1.3-16.1,1.4
								C12.3,54.3,12.3,54.3,12.3,54.3z M12.1,48.6c0.9,0,1.8,0.7,1.9,1.7v0.2c3.2-0.2,7.3-0.5,12.3-1.1l-1-11.8
								c-0.1-1,0.7-1.9,1.7-2c6.1-0.6,6.7-0.7,7-0.7c0.9,0,1.7,0.7,1.9,1.6c0.3,2.5,0.5,5.8,0.8,9.9c0.4-0.1,0.9-0.1,1.4-0.1
								c0.5-0.1,1,0.1,1.4,0.5s0.6,0.9,0.6,1.4v0.1c4.9-0.4,9-0.8,12.1-1c-0.4-4.3-0.8-10.7-1.3-19.2c-0.7-8.1-1.1-14.5-1.5-19.2
								C49,9,48.5,9,48,9c-1,0.1-1.9-0.7-2-1.6V7.2C41,7.6,37,8,34.1,8.3c0.5,3.9,0.8,7.1,0.9,9.4c0.1,1-0.7,1.9-1.7,2l-8.2,0.7
								c-1,0.1-1.9-0.7-2-1.6c-0.5-3.1-0.8-5.6-1-7.6l-1.2,0.1c-1,0.1-1.9-0.5-2-1.5l-0.1-0.4c-3.5,0.4-7.3,0.7-11.5,1
								C8,15.8,8.6,22.2,9.2,29.5c0.5,6.6,1,13.1,1.4,19.3c0.5,0,0.9-0.1,1.4-0.1C12,48.6,12,48.6,12.1,48.6z M238,46.9
								c0.5,0,0.9,0.2,1.3,0.5c0.3,0.3,0.5,0.5,0.8,0.9l5.1-1.6l-15.9-25.6c-0.2,0.1-0.3,0.1-0.5,0.1c-0.7,0-1.3-0.3-1.6-0.9
								l-0.1-0.2l-15,25l0.5,0.2c0.5,0.2,1,0.5,1.2,1c0,0,0,0,0,0.1l6.7,1.8l2.5-4.6c0.3-0.6,0.9-1,1.6-1l0,0l8.8,0.1
								c0.6,0,1.2,0.3,1.5,0.8c0.8,1.1,1.5,2.2,2.3,3.3C237.6,46.9,237.8,46.9,238,46.9z M188.8,46.6c0.4,0,0.8,0.1,1.1,0.4
								c0.4,0.3,0.7,0.8,0.7,1.3v0.1c6.4-0.9,11.6-1.6,15.6-2c-0.3-2-0.9-4.4-1.6-7.3l-1.2,0.1c-0.9,0.1-1.8-0.5-2-1.4v-0.1l-3,0.4
								c-0.5,0.1-1-0.1-1.4-0.4c-0.4-0.3-0.7-0.8-0.7-1.3c-0.8-6.8-1.4-12.2-1.8-16.2l-1.2,0.1c-1,0.1-1.9-0.5-2-1.5
								c-3,0.4-5.3,0.7-6.8,0.9c1.4,11.9,2.5,20.8,3.1,27.2l1-0.2C188.6,46.6,188.7,46.6,188.8,46.6z M124.9,46.7
								c0.9,0,1.6,0.7,1.8,1.5c1.5-0.2,3.4-0.5,5.6-1c-0.4-2.6-0.8-4.6-1.2-5.9c-0.2-0.9,0.3-1.9,1.2-2.2c3.9-1.4,7-3.5,9-5.9
								c1.9-2.2,2.7-4.4,2.7-6.6c0-2.2-0.9-3.9-2.6-5.4c-2.1-1.7-5-2.6-8.8-2.6c-0.1,0-0.2,0-0.4,0c-2.5,0-6.7,0.5-12.4,1.5
								c1.7,8.4,3.3,17.4,4.8,26.7C124.8,46.7,124.9,46.7,124.9,46.7z M96.4,46.7c0.9,0,1.6,0.7,1.8,1.5c1.5-0.2,3.4-0.5,5.6-1
								c-0.4-2.5-0.8-4.5-1.2-6c-0.2-0.9,0.3-1.9,1.2-2.2c3.9-1.5,7-3.5,9-5.9c1.9-2.2,2.7-4.4,2.7-6.6c0-2.2-0.9-4-2.6-5.4
								c-2.1-1.7-5-2.6-8.8-2.6c-0.1,0-0.2,0-0.4,0c-2.5,0-6.7,0.5-12.4,1.5c1.7,8.4,3.3,17.4,4.8,26.7
								C96.3,46.7,96.3,46.7,96.4,46.7z M156.9,47.1c1.2,0.1,2.5,0.2,3.8,0.4c0.7,0.1,2,0.3,3.8,0.7c0.4-3.2,0.8-5.6,1-7.3
								c0.1-0.4,0.3-0.8,0.5-1c6.3-6.1,10.5-10.2,13.1-12.6c-2.4-2.4-4.1-4.1-5.3-5.4c-0.3,0.2-0.6,0.3-0.9,0.3
								c-0.5,0-0.9-0.2-1.3-0.5c-3.4,3.4-6.1,6-8,7.8c-0.4,0.4-1,0.5-1.5,0.4s-1-0.4-1.3-0.9c-2.5-4.5-4.2-7.7-5.3-9.6
								c-0.1,0-0.2,0-0.2-0.1c-0.2-0.1-0.3-0.1-0.4-0.2c-1.6,1.2-3.7,2.5-6,4l2,3.7c2.4,4.5,4.3,8.1,5.6,10.8
								c0.2,0.4,0.3,0.8,0.2,1.2c-0.4,3.1-0.7,5.2-0.9,6.5c0.3,0.1,0.5,0.3,0.8,0.5C156.7,46.2,156.9,46.6,156.9,47.1z M83.1,46.7
								c0.5,0,0.9,0.2,1.3,0.5c0.3,0.3,0.5,0.6,0.8,0.9l5.1-1.6L74.4,20.9C74.2,21,74.1,21,73.9,21c-0.7,0-1.3-0.3-1.6-0.9l-0.1-0.2
								L57.2,45l0.5,0.2c0.5,0.2,1,0.5,1.2,1v0.1l6.8,1.8l2.5-4.6c0.3-0.6,1-1,1.6-1l8.8,0.1c0.6,0,1.2,0.3,1.5,0.8
								c0.9,1.3,1.6,2.4,2.3,3.3C82.7,46.8,82.9,46.7,83.1,46.7z M285,48c0.7,0.1,1.3,0.1,2,0.1h0.1c6.6,0,12.2-1.3,16.8-3.8
								c5.1-2.8,7.6-6.6,7.7-11.6c0.1-3.9-1.8-6.9-5.6-9c-2-1.1-5-2.1-8.9-3c-1.4-0.3-4.3-0.7-8.6-1.2c-1.3-0.1-2.6-0.3-4.2-0.4
								l-2.1,27.1h1c0.6,0,1.1,0.3,1.5,0.7C284.8,47.3,285,47.7,285,48z M261.3,37.9c0.4,0,0.8,0.1,1.1,0.4l12.5,9.1
								c1.1-5.5,2.3-12.7,3.6-21.2l-0.4-0.1c-0.9-0.2-1.5-1-1.4-1.9c-2.1-0.5-4.4-1-6.8-1.5c-0.5,3.5-0.9,5.8-1.1,7.2
								c-0.1,0.7-0.5,1.3-1.2,1.5c-0.6,0.2-1.3,0.1-1.9-0.3c-4.7-3.9-8.7-7.4-12.1-10.5l-3.7,21.5l0.3,0.1c0.5,0.1,0.9,0.3,1.3,0.8
								c0.3,0.4,0.4,0.8,0.4,1.3l6.6,0.9c0.3-1.7,0.6-3.6,1-5.5c0.1-0.6,0.5-1.2,1.2-1.4C260.9,37.9,261.1,37.9,261.3,37.9z
								 M229.7,37.4L229.7,37.4h-1.9c-0.7,0-1.3-0.3-1.6-0.9c-0.3-0.5-0.3-1.3-0.1-1.9c0.2-0.4,0.4-0.9,0.8-1.5
								c0.3-0.5,0.8-0.9,1.4-1c0.6-0.1,1.3,0.2,1.6,0.7c0.3,0.4,0.7,0.9,1.2,1.8c0.4,0.6,0.4,1.3,0.1,1.9
								C230.9,37,230.3,37.4,229.7,37.4z M74.8,37.2L74.8,37.2h-1.7c-0.6,0-1.2-0.3-1.5-0.8s-0.4-1.2-0.2-1.8l0.7-1.5
								c0.3-0.6,0.8-1,1.4-1.1c0.7-0.1,1.3,0.2,1.7,0.7c0.4,0.5,0.8,1,1.2,1.8c0.3,0.6,0.4,1.3,0.1,1.9
								C76.1,36.9,75.4,37.2,74.8,37.2z M294.8,37.1c-0.3,0-0.7-0.1-1-0.3c-0.6-0.4-0.9-1-0.8-1.8l0.4-5.2c0.1-0.5,0.3-1,0.7-1.3
								c0.4-0.3,0.9-0.5,1.4-0.4c0.4,0.1,0.8,0.1,1.3,0.2c0.4,0.1,0.8,0.3,1,0.7c0.5,0.7,1.2,1.8,0.9,3.6c-0.2,1.8-1.3,3.3-3,4.3
								C295.4,37,295.1,37.1,294.8,37.1z M103.8,32.4c-2.5,0-4.4-2-4.4-4.5s2-4.5,4.4-4.5l0,0c1.2,0,2.3,0.4,3.1,1.3
								c0.8,0.8,1.3,2,1.3,3.2C108.2,30.4,106.2,32.4,103.8,32.4z M132.1,31.1c-1.2,0-2.3-0.5-3.1-1.3s-1.3-2-1.3-3.2
								c0-2.5,2-4.5,4.4-4.5l0,0c2.5,0,4.4,2,4.4,4.5C136.5,29.1,134.6,31.1,132.1,31.1z M132.1,24v0.9l0,0V24z"/>
							<path class="st3" d="M102.1,26.4l0.8,2.4l1.9-1.2v-1.4L102.1,26.4z M90.8,19.6l1.3-0.3c19.5-3.8,22.7,2.3,22.7,2.3
								c3.3,11.4-12.9,17.5-12.9,17.5l1.7,7.9l-7.8,1.3L90.8,19.6z M130.6,26.5l0.8,2.4l1.9-1.2v-1.4L130.6,26.5z M119.4,19.6
								l1.3-0.3c19.4-3.8,22.7,2.3,22.7,2.3c3.3,11.4-12.9,17.5-12.9,17.5l1.7,7.9l-7.8,1.3L119.4,19.6z M72.5,35.9l3.5-0.1l-2-3.3
								L72.5,35.9z M64.1,47.7L56,45.4l16.8-27.5l16.8,27.7L82.9,48l-4-5.9l-11.2-0.2L64.1,47.7z M6.7,9.9l12.6-1.2l0.6,11.8
								l14.4-1.3L33.4,7.5l13.1-1.1l2.7,39.2l-13.4,1.5l-1.3-14l-12.6,1l1,14.2L9.5,49.4L6.7,9.9z M147.4,22.8l7.4-4.8l6.7,12.6
								l10-10.1l6.1,6.1l-13.1,12.7l-1.3,7.8l-8.9-0.8l1.4-7.7L147.4,22.8z M183.2,18.7l8.9-1.1l1.8,20.1l8.3-1.3l2,8.8l-17.7,2.7
								L183.2,18.7z M253.1,18.6l14.6,12.5l1.5-9.6l9.1,1.9l-4.8,23.7l-14.6-10.9l-1.5,7.9l-8.7-1.3L253.1,18.6z M294.9,29.4
								l-0.8,6.6c0,0,2.6-0.6,3.5-3.1C298.5,30.3,294.9,29.4,294.9,29.4z M283.8,18.3l16.5,2.5c13.5,4.2,9.2,14,9.2,14
								c-5.4,14.2-27.9,12.5-27.9,12.5L283.8,18.3z M227.2,36.2l3.5-0.1l-2-3.3L227.2,36.2z M218.5,47.8l-8-2.2l16.7-27.5L244,45.8
								l-6.8,2.4l-3.9-5.9l-11.1-0.2L218.5,47.8z"/>
							<g>
								<path class="st4" d="M74.6,17.8l-0.8,1.3l-1.7-2.7l-14.3,24l-3.5,5.8l3,0.8L57,47.7l9.7,2.6l3.2-5.9l8.8,0.1
									c1.2,1.6,2.1,3.1,3.1,4.5l1.3-0.4c0.5,0.5,1,1.1,1.5,1.7l8.6-2.7l-4.4-7.1L74.6,17.8z M82.6,46.9c-0.1-0.1-1.3-1.9-3.8-5.5
									h-12l-3.1,5.4L57.2,45c0.9-1.5,1.8-3.1,2.7-4.7c4.1-6.8,8.2-13.8,12.4-20.6l12.9,20.7l3,4.8L82.6,46.9z"/>
								<path class="st4" d="M106.1,26.5c0.1-2-1.3-3-3.9-3c-0.9,0-2.1,0.1-3.3,0.4c0.7,2.8,1,5,1.2,6.6c1.8-0.2,3.1-0.5,3.9-0.9
									C105.3,28.9,106,27.8,106.1,26.5z M103.1,27.9l-0.2-1.2c0.5-0.1,0.9-0.1,1.3-0.1C104.1,27.2,103.7,27.6,103.1,27.9z"/>
								<path class="st4" d="M223.3,37.3h9.1l-4.8-7.7L223.3,37.3z M228.6,34c0.3,0.4,0.7,0.9,1.1,1.6h-1.9
									C228,35.2,228.2,34.7,228.6,34z"/>
								<path class="st4" d="M54,48.8c-0.2-2.1-0.4-4.9-0.7-8.4s-0.5-7.7-0.8-12.6c-0.5-9-1-16-1.5-21c-1,0-2,0.1-3.2,0.2l-0.3-2.1
									c-7,0.6-12.2,1.1-15.7,1.5c0.6,5,1,8.7,1.1,11.2l-8.2,0.7c-0.5-4.2-0.9-7.3-1-9.3c-1,0.1-2,0.2-3.1,0.3l-0.3-2.1
									c-4.4,0.5-9.5,0.9-15.1,1.3c0.8,5.6,1.5,12.7,2.1,21c0.3,3.6,0.5,7.2,0.8,10.8l0,0c0.3,3.5,0.5,6.9,0.8,10.3
									c1-0.1,2.1-0.1,3.3-0.2l0.2,2c3.8-0.2,9.2-0.6,15.9-1.4l-0.9-10.7l-0.2-2.9c4.3-0.4,6.6-0.7,6.8-0.7v0.1l0,0
									c0.2,2.2,0.7,8.5,0.8,11.6c1.1-0.1,2.2-0.1,3.4-0.2v2.1C45.1,49.6,50.4,49.2,54,48.8z M37,45.7c-0.1-1.9-0.2-3.7-0.4-5.3
									l0,0l0,0c-0.3-3.2-0.6-6-1-8.3c-6.5,0.5-11.5,0.9-14.7,1.3c0.2,2.6,0.4,5,0.5,7l0,0c0.2,3,0.5,5.8,0.6,6.7
									c-4.5,0.5-8.2,0.8-11,0.9c-0.2-2.7-0.4-5.2-0.6-7.7c-1.3-16.2-2.2-26-2.5-29.4L18.2,10l0.9,11.4c7.3-0.7,12.9-1.2,16.6-1.4
									c-0.4-4.9-0.7-8.7-0.9-11.2l10.5-1c1,13.8,1.8,24.7,2.2,32.7l0,0c0.1,1.5,0.2,3,0.3,4.3L37,45.7z"/>
								<path class="st4" d="M68.4,37.1h9.1l-4.8-7.7L68.4,37.1z M73.7,33.8c0.3,0.4,0.7,0.9,1.1,1.5h-1.9
									C73.1,34.9,73.4,34.5,73.7,33.8z"/>
								<path class="st4" d="M313.3,32.8c0.1-4.7-2.1-8.2-6.5-10.7c-2.1-1.2-5.3-2.2-9.5-3.2c-1.5-0.3-4.4-0.7-8.8-1.2
									c-1.8-0.2-3.8-0.4-6-0.6l-1.8,23.6l-0.5,7.5h3.1l-0.4,1.6c1.4,0.1,2.8,0.2,4.3,0.2c7,0,12.9-1.3,17.7-4
									c2.6-1.5,4.7-3.2,6.1-5.3h-2.8h2.7C312.5,38.4,313.3,35.8,313.3,32.8z M309.2,31.4c-0.3,3.7-1.9,6.8-4.8,9.3l0,0
									c-1,0.8-2.1,1.6-3.5,2.3c-4.4,2.4-9.7,3.6-15.9,3.6c-0.8,0-1.5-0.1-2.2-0.1l2.1-27.1c5.7,0.5,9.8,1,12.4,1.6
									c4.9,1,8.3,2.7,10.2,5.2C308.8,27.7,309.3,29.5,309.2,31.4z"/>
								<path class="st4" d="M280.7,24.7l-2.1-0.5l0.3-1.5c-3.2-0.7-6.6-1.5-10.4-2.2c-0.7,4.1-1.1,7.1-1.4,9.2
									c-5.9-4.9-10.7-9.2-14.5-12.8l-4.1,23.9l-0.5,2.9l2.2,0.2l-0.3,1.7l10.2,1.5c0.3-1.8,0.7-3.9,1.1-6.4l0,0
									c0.1-0.3,0.1-0.6,0.2-0.9l1.3,0.9l13.6,9.9c0.6-2.8,1.2-6.1,1.9-9.9l0,0C278.9,36.1,279.8,30.8,280.7,24.7z M274.2,40.6
									L274.2,40.6c-0.3,1.9-0.7,3.6-0.9,5.1c-2.7-2-5-3.6-7-5.1l0,0c-4.3-3.1-6.8-5-7.8-5.6c-0.4,2.1-0.8,4-1.1,5.6
									c-0.2,1-0.3,1.9-0.5,2.6l-7.1-1l0.3-1.6l3.6-20.7c5.2,4.8,10,9,14.6,12.6c0.7-4.5,1.2-7.9,1.5-10.2l7.3,1.6
									C276,30.4,275,36,274.2,40.6z"/>
								<path class="st4" d="M181.9,27.3c-3.6-3.6-6.2-6.3-8-8.1l-1,1l-1.2-1.3c-4.1,4.1-7.2,7.1-9.3,9.1c-3-5.6-5.1-9.3-6.2-11.1
									l-0.7,0.5l-0.5-0.8c-2,1.5-5,3.5-8.8,5.9c3.7,7.1,6.5,12.5,8.4,16.1c-0.1,0.7-0.2,1.3-0.3,1.9l0,0c-0.5,3.8-0.8,6-0.9,6.5
									l1.5,0.1l-0.3,1.8c1.6,0.1,3.6,0.2,5.7,0.5c0.9,0.2,2.7,0.5,5.6,1c0.5-4.1,1-7.1,1.3-9.2c0.2-0.2,0.5-0.5,0.7-0.7l0,0l0,0
									C175,33.7,179.6,29.4,181.9,27.3z M162.9,46.3c-3-0.5-5.3-0.8-7.1-1c0.3-1.9,0.5-3.5,0.7-4.8c0.1-0.9,0.2-1.6,0.3-2.2
									c-3.4-6.7-6-11.8-7.8-15.1c2.4-1.5,4.3-2.8,5.8-3.8c3,5.5,5.3,9.6,6.7,12.4c4.6-4.5,8.1-7.9,10.4-10.1c1.3,1.2,3,2.8,5,4.8
									c-3.5,3.3-7.8,7.5-12.8,12.4c-0.1,0.5-0.2,1.2-0.2,1.6l0,0C163.4,42.7,163,45.2,162.9,46.3z"/>
								<path class="st4" d="M205.9,36.9l-2.8,0.3l-0.4-1.8l-4.7,0.7c-0.9-8-1.6-14-2.1-18l-3.1,0.3l-0.2-1.8
									c-5.6,0.7-9.2,1.1-10.5,1.4c1.1,9,2,16.5,2.6,22.5l0,0c0.3,3.2,0.7,6,0.9,8.4l3-0.5l0.3,1.9c8.5-1.3,15-2.1,19.3-2.5
									c-0.2-2-0.7-4.4-1.4-7.3C206.6,39.4,206.3,38.2,205.9,36.9z M195.2,45.9c-3.2,0.4-5.9,0.7-7.9,1c-0.3-2.2-0.5-4.3-0.7-6.3
									c-1-9-1.8-16.1-2.4-21.1c3.1-0.4,5.4-0.7,6.9-0.8l1.2,9.9c0.5,3.9,0.8,7.2,0.9,9.9c3.6-0.4,6.3-0.8,8.1-1
									c0.3,1.1,0.5,2.1,0.8,3.1c0.4,1.6,0.7,3.1,0.9,4.4C202.2,45.1,199.6,45.4,195.2,45.9z"/>
								<path class="st4" d="M295.8,36.6c1.6-1.1,2.6-2.4,2.8-4.1c0.1-0.3,0.1-0.6,0.1-0.9c0-1.7-0.7-3-2-3.9s-3.2-1.4-5.5-1.4
									l-1,11.7C292.3,38.1,294.2,37.7,295.8,36.6z M295.2,30c0.4,0.1,0.8,0.1,1.1,0.2c0.4,0.5,0.6,1.3,0.5,2.1
									c-0.2,1.3-0.8,2.2-2,2.9L295.2,30z"/>
								<path class="st4" d="M229.5,18l-0.8,1.3l-1.7-2.7l-14.2,23.9l-3.5,5.8l3,0.8l-0.3,0.7l9.8,2.6l3.2-5.9l8.8,0.1
									c1.2,1.6,2.1,3.1,3.1,4.5l1.3-0.4c0.5,0.5,1,1.1,1.5,1.7l8.6-2.7l-4.5-7.2L229.5,18z M237.4,47.2c-0.1-0.1-1.3-1.9-3.8-5.5
									h-12l-3.1,5.5l-6.5-1.8c0.9-1.5,1.8-3.1,2.7-4.7c4.1-6.8,8.2-13.8,12.4-20.6L240,40.8l3,4.8L237.4,47.2z"/>
								<path class="st4" d="M114.2,19.6c-2.4-2-5.7-3-9.9-3.1c-2.9-0.1-7.9,0.5-15.1,1.9c1.5,7,2.8,14.4,4.1,22
									c0,0,0.9,5.5,1.3,8.3l1.7-0.2l0.3,1.8c2.1-0.2,5.2-0.8,9.3-1.6c-0.5-3.5-1-6.1-1.4-7.9c0.3-0.1,0.6-0.2,0.9-0.3l0,0l0,0
									c3.8-1.5,6.7-3.6,8.9-6.1s3.2-5.2,3.2-7.9C117.5,23.7,116.4,21.4,114.2,19.6z M110.2,32.1c-2.6,2.7-5.8,4.7-9.7,6
									c0.1,0.8,0.3,1.6,0.4,2.4h0.1c0.4,2,0.8,4.3,1,5.3l-5.9,1.1c-0.3-2.1-0.7-4.2-1.1-6.4l0,0C93.8,34,92.6,27.1,91.3,20
									c6-1.1,10.4-1.6,12.9-1.5c3.3,0.1,5.8,0.7,7.5,1.9c1.5,1.1,2.3,2.5,2.3,4.3C114,27,112.7,29.5,110.2,32.1z"/>
								<path class="st4" d="M142.7,19.6c-2.4-2-5.7-3-9.9-3c-2.8-0.1-7.9,0.5-15,1.9c1.5,7,2.8,14.3,4.1,22l0,0l0,0
									c0.4,2.7,0.9,5.5,1.3,8.3l1.7-0.2l0.3,1.8c2.1-0.2,5.2-0.8,9.3-1.6c-0.5-3.5-1-6.1-1.4-7.9c0.3-0.1,0.6-0.2,0.9-0.3l0,0l0,0
									c3.8-1.5,6.7-3.6,8.9-6.1c2.1-2.5,3.2-5.2,3.2-7.9C146.1,23.7,144.9,21.4,142.7,19.6z M138.8,32.1c-2.6,2.7-5.8,4.7-9.7,6
									v0.1l0,0c0.1,0.5,0.2,1.3,0.4,2c0,0.1,0.1,0.2,0.1,0.3l0,0c0.4,2,0.8,4.3,1,5.3l-5.9,1.1c-0.4-2.1-1.1-6.3-1.5-8.4l0,0
									c-1-5.9-2.1-12-3.3-18.5c6-1.1,10.4-1.6,12.9-1.5c3.3,0.1,5.8,0.7,7.5,1.9c1.5,1.1,2.3,2.5,2.2,4.3
									C142.6,27.1,141.3,29.5,138.8,32.1z"/>
								<path class="st4" d="M134.6,26.5c0-2-1.3-3-3.9-3c-0.9,0-2.1,0.1-3.3,0.4c0.7,2.8,1.1,5,1.3,6.6c1.8-0.2,3.1-0.5,3.9-0.9
									C133.8,28.9,134.6,27.9,134.6,26.5z M131.6,27.9l-0.2-1.2c0.5-0.1,0.9-0.1,1.3-0.1C132.7,27.2,132.3,27.7,131.6,27.9z"/>
							</g>
						</g>
					</g>
				</g>
			</g>
			<g>
				<path class="st5" d="M82.3,57.4c-1.7-1.3-3.7-2-5.9-2c-3.4,0-6.6,0.9-9.5,2.6c-1,0.6-1.5,1.1-1.5,1.6c0,0.8,0.4,1.2,1.2,1.2
					c0.2,0,0.3,0,1.9-1.2c0.4-0.3,0.8-0.5,1.2-0.7c-0.3,0.4-0.5,1.2-0.8,2.5c-0.3,1.4-0.4,2.5-0.4,3.2v2.1c0,1.4,0.2,2.9,0.6,4.4
					c0.6,2.2,1.5,3.3,2.7,3.3c0.3,0,0.5-0.1,0.8-0.4c0.5,0.3,1.2,0.5,2.2,0.5c2.7,0,5.1-1.3,7.2-3.8c2-2.4,3.1-5,3.1-7.7
					C85.2,60.7,84.2,58.8,82.3,57.4z M73,72.5L73,72.5L73,72.5L73,72.5c-0.2,0.2-0.4,0.2-0.5,0.2c-1.3,0-1.9-2.1-1.9-6.2
					c0-1.3,0.2-2.7,0.4-4.3c0-0.1,0.1-0.3,0.3-1.1c0.1-0.5,0.2-0.9,0.2-1.2c0-0.7-0.3-1.2-0.9-1.3c0.5-0.2,1.2-0.4,1.8-0.6
					c1.4-0.4,2.8-0.7,4.1-0.7c1.9,0,3.5,0.5,4.8,1.5c1.4,1,2.1,2.5,2.1,4.2c0,2.1-1,4.3-2.9,6.5s-3.9,3.2-6,3.3
					c-0.1,0-0.3-0.1-0.7-0.2l0.2-0.4L73,72.5z"/>
				<path class="st0" d="M76.4,55.3c2.2,0,4.2,0.7,5.9,2c1.9,1.5,2.9,3.3,2.9,5.6c0,2.7-1,5.3-3.1,7.7c-2.1,2.6-4.5,3.8-7.2,3.8
					c-1,0-1.7-0.2-2.2-0.5c-0.3,0.3-0.5,0.4-0.8,0.4c-1.2,0-2.1-1.2-2.7-3.3c-0.4-1.5-0.6-3-0.6-4.4v-2.1c0-0.8,0.1-1.9,0.4-3.2
					c0.2-1.3,0.4-2,0.8-2.5c-0.4,0.2-0.8,0.4-1.2,0.7c-1.6,1.2-1.8,1.2-1.9,1.2c-0.8,0-1.2-0.4-1.2-1.2c0-0.5,0.5-1,1.5-1.6
					C69.8,56.2,73,55.3,76.4,55.3 M72.5,72.6c0.1,0,0.2,0,0.3-0.1l0,0v-0.1h0.1l0.8-0.3l-0.2,0.4c0.4,0.1,0.6,0.1,0.7,0.2
					c2.1,0,4.1-1.1,6-3.3c1.9-2.1,2.9-4.3,2.9-6.5c0-1.8-0.7-3.1-2.1-4.2c-1.3-1-2.9-1.5-4.8-1.5c-1.3,0-2.7,0.2-4.1,0.7
					c-0.6,0.2-1.2,0.4-1.8,0.6c0.6,0.1,0.9,0.5,0.9,1.3c0,0.3-0.1,0.7-0.2,1.2c-0.2,0.8-0.3,1-0.3,1.1c-0.3,1.6-0.4,3-0.4,4.3
					C70.6,70.5,71.2,72.6,72.5,72.6 M73.8,72.2L73.8,72.2 M76.4,53.4c-3.7,0-7.2,1-10.5,2.9c-0.8,0.4-2.5,1.5-2.5,3.3
					s1.3,3.2,3.2,3.2c0.1,0,0.1,0,0.2,0c-0.1,0.7-0.2,1.4-0.2,1.9v2.1c0,1.6,0.2,3.2,0.7,4.9c1,3.9,3.1,4.8,4.6,4.8
					c0.3,0,0.6-0.1,1-0.2c0.6,0.2,1.3,0.2,2,0.2c3.3,0,6.2-1.5,8.7-4.5c2.4-2.8,3.6-5.8,3.6-9c0-2.8-1.3-5.4-3.6-7.2
					C81.5,54.2,79,53.4,76.4,53.4L76.4,53.4z M73.4,59.7c1-0.3,2-0.4,3-0.4c1.4,0,2.6,0.4,3.6,1.1c0.9,0.7,1.2,1.5,1.2,2.5
					c0,1.6-0.8,3.4-2.4,5.2c-1.3,1.4-2.6,2.3-3.9,2.5c-0.3-0.3-0.7-0.4-1.2-0.4h-0.1c-0.1,0-0.1,0-0.2,0c-0.2,0-0.3,0.1-0.5,0.1
					l-0.2,0.1c-0.2-0.5-0.4-1.7-0.4-4c0-1.2,0.1-2.5,0.4-3.9c0-0.1,0.1-0.3,0.2-1C73.3,60.8,73.4,60.2,73.4,59.7
					C73.4,59.8,73.4,59.7,73.4,59.7L73.4,59.7z"/>
			</g>
			<g>
				<path class="st5" d="M88.4,58.8c0.7,0,1.2-0.4,1.2-1.3c0-0.8-0.4-1.2-1.2-1.2c-0.3,0-0.7,0.2-0.9,0.4c-0.2,0.3-0.3,0.5-0.3,0.8
					s0.1,0.5,0.3,0.8C87.8,58.7,88,58.8,88.4,58.8z"/>
				<path class="st0" d="M88.4,56.4c0.7,0,1.2,0.4,1.2,1.2s-0.4,1.3-1.2,1.3c-0.3,0-0.6-0.2-0.8-0.4s-0.4-0.6-0.4-0.9
					s0.1-0.5,0.3-0.8C87.7,56.5,88,56.4,88.4,56.4 M88.4,54.4c-0.9,0-1.8,0.4-2.4,1.2c-0.5,0.6-0.7,1.3-0.7,2s0.3,1.4,0.8,2
					c0.6,0.7,1.4,1.2,2.4,1.2c1.8,0,3.1-1.4,3.1-3.2C91.4,55.7,90.2,54.4,88.4,54.4L88.4,54.4z"/>
			</g>
			<g>
				<path class="st5" d="M90.4,71.9l-0.2-0.2L90,71.8c-0.3,0.1-0.5,0.3-0.7,0.5h-0.1c-0.3,0-0.6-0.3-0.8-1L88,69.5
					c0-0.2,0-0.5,0-1.5c0.1-1.7,0.3-3,0.6-3.6c0.4-1,0.4-1.3,0.4-1.5c0-0.7-0.4-1.2-1-1.2c-0.8,0-1.3,1-1.7,3.2
					c-0.2,1.4-0.3,2.5-0.3,3.5s0.2,2.1,0.5,3.2c0.5,1.6,1.4,2.5,2.5,2.5c0.3,0,0.6-0.1,0.9-0.3c0.4-0.3,0.7-0.6,0.7-1
					C90.9,72.4,90.8,72.2,90.4,71.9z"/>
				<path class="st0" d="M88.2,61.7c0.7,0,1,0.4,1,1.2c0,0.2-0.1,0.5-0.4,1.5c-0.3,0.7-0.5,1.9-0.6,3.6c0,1,0,1.3,0,1.5l0.4,1.8
					c0.2,0.7,0.5,1,0.8,1h0.1c0.2-0.2,0.4-0.4,0.7-0.5l0.2-0.1l0.2,0.2c0.3,0.3,0.4,0.5,0.4,0.8c0,0.4-0.2,0.8-0.7,1
					C90,73.9,89.6,74,89.4,74c-1.1,0-2-0.8-2.5-2.5c-0.4-1.1-0.5-2.1-0.5-3.2c0-0.9,0.1-2.1,0.3-3.5C86.9,62.7,87.4,61.7,88.2,61.7
					 M88.2,59.7c-2.8,0-3.4,3.5-3.6,4.8c-0.2,1.5-0.4,2.7-0.4,3.8c0,1.3,0.2,2.5,0.7,3.8c1.1,3.3,3.2,3.8,4.4,3.8
					c0.7,0,1.3-0.2,1.9-0.6c1-0.6,1.6-1.6,1.6-2.7c0-0.6-0.2-1.5-1.1-2.3l-0.2-0.2c-0.4-0.3-0.8-0.5-1.3-0.5l0,0l-0.1-0.4
					c0-0.2,0-0.6,0-1.3c0.2-2,0.4-2.7,0.4-3c0.4-1,0.6-1.7,0.6-2.2C91.2,61.1,90,59.7,88.2,59.7L88.2,59.7z"/>
			</g>
			<g>
				<path class="st5" d="M101.7,62.5L101.7,62.5c0.2,0,0.3,0,0.4,0c0.6-0.2,0.7-0.5,0.7-0.7c0-0.5-0.4-0.9-1-0.9
					c-1.3,0-2.5,1.2-3.7,3.6C97.7,65.2,97,67,96,69.7l-0.2,0.5c-0.1-0.1-0.1-0.2-0.1-0.3c-1.6-4.3-1.7-4.5-1.7-4.5
					c-1.4-3.3-1.9-3.6-2.3-3.6c-0.2,0-0.4,0.1-0.7,0.2c-0.4,0.3-0.5,0.6-0.5,0.8c0,0.1,0.1,0.3,0.1,0.4l1,1.9
					c0.7,1.2,1.1,2.2,1.4,2.9c0.6,1.7,1,2.9,1.2,3.7c0.4,1.4,0.9,2,1.4,2c0.4,0,0.8-0.4,1.5-2.1l2.2-5.3
					C101,62.7,101.6,62.5,101.7,62.5z"/>
				<path class="st0" d="M101.8,60.9c0.7,0,1,0.3,1,0.9c0,0.2-0.1,0.5-0.7,0.7c-0.1,0-0.1,0-0.2,0s-0.1,0-0.2,0l0,0
					c-0.1,0-0.8,0.2-2.4,3.7l-2.2,5.3c-0.8,1.8-1.2,2.1-1.5,2.1c-0.5,0-0.9-0.6-1.4-2c-0.2-0.7-0.7-2-1.2-3.7
					c-0.3-0.7-0.8-1.7-1.4-2.9l-1-1.9c-0.1-0.1-0.1-0.3-0.1-0.4c0-0.2,0.1-0.5,0.5-0.8c0.2-0.2,0.4-0.2,0.7-0.2
					c0.4,0,0.9,0.3,2.3,3.6c0,0.1,0.1,0.2,1.7,4.5c0.1,0.1,0.1,0.2,0.1,0.3l0.2-0.5c1-2.7,1.8-4.4,2.1-5.2
					C99.3,62.1,100.5,60.9,101.8,60.9 M101.8,58.9c-3.1,0-4.9,3.5-5.4,4.7c-0.1,0.3-0.3,0.7-0.5,1.2c-0.1-0.2-0.1-0.2-0.1-0.2
					c-1.3-3.2-2.3-4.8-4.1-4.8c-0.6,0-1.2,0.2-1.8,0.5c0,0,0,0-0.1,0c-0.8,0.5-1.3,1.5-1.3,2.5c0,0.4,0.1,0.8,0.3,1.2
					c0,0.1,0.1,0.1,0.1,0.1l1,1.9c0.7,1.4,1.1,2.2,1.3,2.7c0.5,1.6,1,2.8,1.2,3.5c0,0,0,0,0,0.1c0.3,1,1.1,3.3,3.2,3.3
					c1.9,0,2.7-1.9,3.3-3.3l2.3-5.4c0.7-1.5,1.2-2.2,1.4-2.6c0.1,0,0.1,0,0.1,0c1.5-0.4,2.1-1.6,2.1-2.6
					C104.7,60.1,103.5,58.9,101.8,58.9L101.8,58.9z"/>
			</g>
			<g>
				<path class="st5" d="M110.4,66.6h-0.8l-0.1,0.2c-0.5,1.2-1.4,2.3-2.6,3.5c-1.3,1.1-2.4,1.7-3.3,1.7c-1.1,0-1.2-0.4-1.2-0.9
					c0-0.6,0.1-1.3,0.3-2.1c0.2-0.6,0.3-0.9,0.3-1.1c0.4,0.2,0.8,0.3,1.4,0.3c1.4,0,2.6-0.8,3.7-2.5c0.9-1.4,1.3-2.6,1.3-3.7
					c0-0.4-0.1-0.8-0.3-1.2c-0.3-0.5-0.8-0.8-1.3-0.8c-1.5,0-3.1,1.3-4.8,3.8c-1.6,2.3-2.4,4.3-2.5,5.9c-0.1,1.2,0.2,2.1,0.7,2.8
					c0.5,0.8,1.4,1.2,2.5,1.2c1.4,0,2.8-0.6,4.1-1.7c1.4-1.2,2.5-2.7,3.1-4.4c0.1-0.2,0.1-0.5-0.3-0.9L110.4,66.6z M106.8,62.3
					c0.3-0.3,0.5-0.5,0.9-0.6l0,0c0,0.1,0,0.1,0,0.1c0,0.8-0.4,1.8-1.3,2.9c-0.8,1-1.6,1.6-2.2,1.6h-0.1c-0.2,0-0.3-0.1-0.3-0.1
					C103.9,66,104.5,65,106.8,62.3z M107.7,61.7L107.7,61.7v-0.3l0,0V61.7z"/>
				<path class="st0" d="M107.7,60c0.5,0,1,0.3,1.3,0.8c0.2,0.4,0.3,0.8,0.3,1.2c0,1-0.4,2.3-1.3,3.7c-1,1.6-2.3,2.5-3.7,2.5
					c-0.5,0-1-0.1-1.4-0.3c-0.1,0.2-0.2,0.5-0.3,1.1c-0.2,0.8-0.3,1.5-0.3,2.1c0,0.4,0.2,0.9,1.2,0.9c0.9,0,2-0.5,3.3-1.7
					c1.3-1.1,2.1-2.2,2.6-3.5l0.1-0.2h0.8l0.1,0.1c0.4,0.4,0.4,0.7,0.3,0.9c-0.6,1.8-1.6,3.3-3.1,4.4c-1.4,1.2-2.7,1.7-4.1,1.7
					c-1.1,0-1.9-0.4-2.5-1.2c-0.5-0.7-0.8-1.6-0.7-2.8c0.1-1.6,0.9-3.6,2.5-5.9C104.7,61.2,106.2,60,107.7,60 M107.7,61.7v-0.3V61.7
					L107.7,61.7 M104.1,66.4c0.7,0,1.4-0.5,2.2-1.6c0.9-1.1,1.3-2.1,1.3-2.9c0-0.1,0-0.1,0-0.1l0,0c-0.3,0.1-0.6,0.3-0.9,0.6
					c-2.2,2.6-2.8,3.6-3,4C103.8,66.3,103.9,66.3,104.1,66.4L104.1,66.4L104.1,66.4 M107.7,58c-2.9,0-5,2.7-6.4,4.7
					c-1.8,2.7-2.7,4.9-2.8,6.9c-0.1,1.6,0.3,3.1,1.1,4.2c0.7,0.9,1.9,1.9,4.1,1.9c1.9,0,3.7-0.7,5.4-2.2c1.7-1.4,2.9-3.2,3.6-5.3
					c0.4-1,0.1-2.2-0.8-3l-0.1-0.1c-0.3-0.3-0.6-0.4-1-0.5c0.3-0.9,0.5-1.8,0.5-2.6c0-0.8-0.2-1.5-0.6-2.2
					C110.1,58.7,109,58,107.7,58L107.7,58z"/>
			</g>
			<g>
				<path class="st5" d="M118.3,61.5L118.3,61.5l0.1,0.2c0.1,0.2,0.1,0.3,0.2,0.4c0.1,0.2,0.3,0.4,0.6,0.4c0.4,0,0.6-0.2,0.7-0.3
					c0.2-0.2,0.2-0.5,0.2-0.9c-0.2-1-0.9-1.6-2-1.6c-1.3,0-2.5,1.1-3.6,3.3c0-0.3,0.1-0.5,0.1-0.8c0.1-0.3,0-0.6-0.2-0.9
					c-0.3-0.6-0.7-0.7-1-0.7s-0.6,0.2-0.8,0.4c-0.3,0.3-0.4,0.6-0.3,0.9c0.2,1.8,0.3,3.4,0.3,4.8s-0.1,3.1-0.3,5.2
					c-0.1,0.7,0.1,1.1,0.3,1.4c0.1,0.2,0.4,0.3,0.8,0.3c0.3,0,0.5-0.1,0.8-0.3c0.3-0.2,0.4-0.5,0.4-0.8c-0.1-2.1-0.1-2.5-0.1-2.5
					c0-1.4,0.2-2.6,0.5-3.7c0.3-1,1-2.1,1.9-3.3C117.6,61.7,118.1,61.5,118.3,61.5L118.3,61.5z"/>
				<path class="st0" d="M118,59.7c1.1,0,1.8,0.5,2,1.6c0.1,0.4,0,0.7-0.2,0.9c-0.1,0.1-0.3,0.3-0.7,0.3c-0.3,0-0.5-0.1-0.6-0.4
					c-0.1-0.1-0.1-0.3-0.2-0.4l-0.1-0.2l0,0l0,0c0,0,0,0-0.1,0c-0.2,0-0.7,0.2-1.6,1.5c-0.9,1.2-1.5,2.4-1.9,3.3
					c-0.4,1-0.5,2.3-0.5,3.7c0,0.1,0,0.4,0.1,2.5c0,0.3-0.1,0.6-0.4,0.8c-0.3,0.2-0.5,0.3-0.8,0.3c-0.4,0-0.7-0.2-0.8-0.3
					c-0.3-0.3-0.4-0.8-0.3-1.4c0.2-2.1,0.3-3.8,0.3-5.2c0-1.4-0.1-3-0.3-4.8c0-0.3,0.1-0.6,0.3-0.9c0.3-0.3,0.5-0.4,0.8-0.4
					s0.8,0.1,1,0.7c0.1,0.3,0.2,0.6,0.2,0.9c-0.1,0.3-0.1,0.5-0.1,0.8C115.5,60.8,116.7,59.7,118,59.7 M118,57.7
					c-1.3,0-2.4,0.6-3.2,1.3c-0.4-0.3-0.9-0.4-1.5-0.4c-0.8,0-1.6,0.4-2.3,1.1c-0.6,0.7-0.9,1.6-0.8,2.4c0.2,1.7,0.3,3.3,0.3,4.6
					c0,1.3-0.1,3-0.3,5l0,0c-0.1,1.2,0.2,2.2,0.8,2.9c0.5,0.6,1.4,0.9,2.2,0.9c0.7,0,1.4-0.3,2.1-0.8c0.7-0.6,1.1-1.4,1.1-2.4
					c0-0.1,0-0.1,0-0.1c-0.1-2-0.1-2.4-0.1-2.5c0-1.2,0.1-2.1,0.4-3c0.3-0.8,0.8-1.6,1.4-2.7c0.3,0.2,0.7,0.2,1,0.2
					c0.9,0,1.6-0.3,2.2-1c0.4-0.5,0.8-1.3,0.6-2.5l0,0C121.6,59,120,57.7,118,57.7L118,57.7z"/>
			</g>
			<g>
				<path class="st5" d="M122.2,63.5c1.4-1.2,2.1-1.4,2.5-1.4c0.1,0,0.1,0,0.1,0c0.1,0,0.2,0.1,0.6,0.3c0.5,0.3,0.7,0.3,0.8,0.3
					c0.5,0,0.9-0.4,0.9-1c0-0.5-0.3-0.9-0.9-1.3c-0.5-0.3-0.9-0.4-1.3-0.4c-1.2,0-2.6,0.8-4.2,2.4c-1.6,1.6-2.5,3-2.5,4.1
					c0,0.5,0.4,1,1.2,1.3c0.5,0.2,1,0.3,1.5,0.3l2.9,0.1c0.4,0,0.7,0.1,1,0.3c0.4,0.3,0.5,0.5,0.5,0.8c0,0.7-0.9,1.3-1.6,1.6
					c-1,0.5-1.9,0.8-2.7,0.8c-0.5,0-0.5-0.2-0.5-0.3c0-0.1,0-0.2,0.1-0.2c0.1-0.2,0.2-0.5,0.2-0.9v-0.2l-0.2-0.1
					c-0.1-0.1-0.2-0.1-0.3-0.1c-0.4,0-0.7,0.2-1,0.7c-0.2,0.4-0.4,0.7-0.4,1c0,0.7,0.3,1.3,0.9,1.7c0.5,0.4,1,0.5,1.6,0.5
					c1.2,0,2.4-0.4,3.6-1.3c1.4-1,2-2.1,2-3.3c0-1.8-1.5-2.7-4.6-2.7c-1.7,0-1.9-0.3-1.9-0.3C120.4,65.4,121.1,64.5,122.2,63.5z"/>
				<path class="st0" d="M124.9,60c0.4,0,0.8,0.1,1.3,0.4c0.7,0.3,0.9,0.8,0.9,1.3c0,0.7-0.3,1-0.9,1c-0.1,0-0.2,0-0.8-0.3
					c-0.4-0.2-0.5-0.2-0.6-0.3c-0.1,0-0.1,0-0.1,0c-0.4,0-1.2,0.3-2.5,1.4c-1.2,1-1.8,1.9-1.8,2.6c0,0,0.2,0.3,1.9,0.3
					c3.1,0,4.6,0.9,4.6,2.7c0,1.3-0.7,2.4-2,3.3c-1.2,0.9-2.4,1.3-3.6,1.3c-0.5,0-1.1-0.2-1.6-0.5c-0.6-0.4-0.9-1-0.9-1.7
					c0-0.3,0.1-0.7,0.4-1c0.3-0.5,0.6-0.7,1-0.7c0.1,0,0.2,0,0.3,0.1l0.2,0.1v0.2c-0.1,0.4-0.1,0.7-0.2,0.9
					c-0.1,0.1-0.1,0.2-0.1,0.2c0,0.2,0,0.3,0.5,0.3c0.8,0,1.7-0.3,2.7-0.8c0.7-0.4,1.6-1,1.6-1.6c0-0.2-0.1-0.5-0.5-0.8
					c-0.3-0.2-0.6-0.3-1-0.3l-2.9-0.1c-0.5,0-1-0.1-1.5-0.3c-0.8-0.3-1.2-0.8-1.2-1.3c0-1.1,0.8-2.5,2.5-4.1
					C122.3,60.8,123.7,60,124.9,60 M124.9,58c-1.8,0-3.5,0.9-5.6,3s-3.1,3.8-3.1,5.5c0,0.5,0.2,1.8,1.4,2.6
					c-0.1,0.1-0.2,0.2-0.2,0.3c-0.4,0.7-0.7,1.4-0.7,2.1c0,1.3,0.6,2.5,1.7,3.3c0.8,0.6,1.8,0.9,2.7,0.9c1.6,0,3.2-0.5,4.8-1.6
					c2.4-1.7,2.8-3.6,2.8-5c0-1.3-0.5-4-4.8-4.6c0.3-0.2,0.4-0.3,0.6-0.4c0.5,0.3,1,0.5,1.5,0.5c1.6,0,2.8-1.3,2.8-3
					c0-0.7-0.3-2-2-3l0,0C126.3,58.2,125.6,58,124.9,58L124.9,58z"/>
			</g>
			<g>
				<path class="st5" d="M132.5,71.9l-0.2-0.2l-0.2,0.1c-0.3,0.1-0.5,0.3-0.7,0.5l0,0c-0.3,0-0.7-0.3-0.8-1l-0.4-1.8
					c0-0.2,0-0.5,0-1.5c0.1-1.7,0.3-3,0.6-3.6c0.4-1,0.4-1.3,0.4-1.5c0-0.7-0.4-1.2-1-1.2c-0.8,0-1.3,1-1.7,3.2
					c-0.2,1.4-0.3,2.5-0.3,3.5s0.2,2.1,0.5,3.2c0.5,1.6,1.4,2.5,2.5,2.5c0.3,0,0.6-0.1,0.9-0.3c0.4-0.3,0.7-0.6,0.7-1
					C132.9,72.4,132.7,72.2,132.5,71.9z"/>
				<path class="st0" d="M130.2,61.7c0.7,0,1,0.4,1,1.2c0,0.2-0.1,0.5-0.4,1.5c-0.3,0.7-0.5,1.9-0.6,3.6c0,1,0,1.3,0,1.5l0.4,1.8
					c0.2,0.7,0.5,1,0.8,1l0,0c0.2-0.2,0.4-0.4,0.7-0.5l0.2-0.1l0.2,0.2c0.3,0.3,0.4,0.5,0.4,0.8c0,0.4-0.2,0.8-0.7,1
					c-0.3,0.2-0.7,0.3-0.9,0.3c-1.1,0-2-0.8-2.5-2.5c-0.4-1.1-0.5-2.1-0.5-3.2c0-0.9,0.1-2.1,0.3-3.5
					C128.9,62.7,129.5,61.7,130.2,61.7 M130.2,59.7c-2.8,0-3.4,3.5-3.6,4.8c-0.2,1.5-0.4,2.7-0.4,3.8c0,1.3,0.2,2.5,0.7,3.8
					c1.1,3.3,3.2,3.8,4.4,3.8c0.7,0,1.3-0.2,1.9-0.6c1-0.6,1.6-1.6,1.6-2.7c0-0.6-0.2-1.5-1.1-2.3l-0.2-0.2
					c-0.4-0.3-0.8-0.5-1.3-0.5h-0.1l-0.1-0.4c0-0.2,0-0.6,0-1.3c0.2-2,0.4-2.7,0.4-3c0.4-1,0.6-1.7,0.6-2.2
					C133.2,61.1,132,59.7,130.2,59.7L130.2,59.7z"/>
			</g>
			<g>
				<path class="st5" d="M130.4,58.8c0.7,0,1.2-0.4,1.2-1.3c0-0.8-0.4-1.2-1.2-1.2c-0.3,0-0.7,0.2-0.9,0.4s-0.3,0.5-0.3,0.8
					s0.1,0.5,0.3,0.8C129.7,58.7,130.1,58.8,130.4,58.8z"/>
				<path class="st0" d="M130.4,56.4c0.7,0,1.2,0.4,1.2,1.2s-0.4,1.3-1.2,1.3c-0.3,0-0.6-0.2-0.8-0.4s-0.4-0.6-0.4-0.9
					s0.1-0.5,0.3-0.8C129.7,56.5,130.1,56.4,130.4,56.4 M130.4,54.4c-0.9,0-1.8,0.4-2.4,1.2c-0.5,0.6-0.7,1.3-0.7,2s0.3,1.4,0.8,2
					c0.6,0.7,1.4,1.2,2.4,1.2c1.8,0,3.1-1.4,3.1-3.2C133.5,55.7,132.2,54.4,130.4,54.4L130.4,54.4z"/>
			</g>
			<g>
				<path class="st5" d="M139.2,60.5c-0.3,0-0.8,0.2-1.5,0.5c-0.6,0.3-1,0.6-1.2,0.9c-0.1,0-0.2,0-0.3,0c-0.8,0-1.6,0.9-2.4,3
					c-0.8,1.9-1.2,3.6-1.2,5.3c0,1,0.3,1.9,0.8,2.5c0.5,0.7,1.3,1,2.1,1c0.1,0,0.2,0,0.3,0c1.6-0.2,3.1-1.5,4.5-3.9
					c1.2-2.1,1.7-3.8,1.6-5.1C142,61.9,141,60.5,139.2,60.5z M139.2,62.2c0.6,0,0.9,0.7,0.9,2.1c0,1.1-0.5,2.6-1.5,4.4
					c-1,2.1-2.1,3.1-3.2,3.1c-0.5,0-0.8-0.7-0.8-2.1c0-1.8,0.8-3.7,2.3-5.8c0.4-0.5,0.5-0.8,0.5-1C138.1,62.5,138.7,62.2,139.2,62.2
					z"/>
				<path class="st0" d="M139.2,60.5c1.9,0,2.8,1.4,2.9,4.2c0.1,1.3-0.5,3-1.6,5.1c-1.4,2.5-2.8,3.8-4.5,3.9c-0.1,0-0.2,0-0.3,0
					c-0.9,0-1.6-0.3-2.1-1s-0.8-1.5-0.8-2.5c0-1.6,0.4-3.4,1.2-5.3c0.8-2,1.6-3,2.4-3c0.1,0,0.2,0,0.3,0c0.2-0.3,0.5-0.6,1.2-0.9
					C138.3,60.6,138.8,60.5,139.2,60.5 M135.4,71.9c1,0,2.1-1,3.2-3.1c1-1.9,1.5-3.3,1.5-4.4c0-1.4-0.3-2.1-0.9-2.1
					c-0.5,0-1.1,0.3-1.8,0.9c0,0.2-0.2,0.4-0.5,1c-1.5,2.1-2.3,4-2.3,5.8C134.6,71.2,134.8,71.9,135.4,71.9 M139.2,58.5
					c-0.7,0-1.4,0.2-2.4,0.7c-0.5,0.2-0.9,0.5-1.2,0.8c-2.1,0.4-3.1,3-3.6,4.2c-0.9,2.1-1.3,4.1-1.3,6c0,1.5,0.4,2.7,1.2,3.8
					c0.9,1.2,2.2,1.8,3.7,1.8c0.2,0,0.3,0,0.4,0c2.4-0.2,4.4-1.9,6-4.9c1.3-2.5,2-4.4,1.9-6.1C143.9,59.1,140.6,58.5,139.2,58.5
					L139.2,58.5z"/>
			</g>
			<g>
				<path class="st5" d="M138.3,60.3c0.1,0,0.3,0,0.4-0.1c1.3-0.5,2.1-0.9,2.6-1.1c1.2-0.5,1.9-1,2.2-1.5c0.3-0.4,0.2-0.9-0.2-1.2
					c-0.3-0.2-0.7-0.4-1-0.4s-0.5,0.1-0.7,0.3c-0.7,0.9-1.9,1.8-3.5,2.5c-0.5,0.2-0.6,0.5-0.6,0.8C137.5,59.9,137.7,60.3,138.3,60.3
					z"/>
				<path class="st0" d="M142.3,56c0.4,0,0.8,0.1,1,0.4c0.4,0.3,0.5,0.8,0.2,1.2c-0.3,0.4-1,0.9-2.2,1.5c-0.5,0.2-1.4,0.6-2.6,1.1
					c-0.1,0.1-0.3,0.1-0.4,0.1c-0.6,0-0.8-0.4-0.8-0.7c0-0.2,0.1-0.5,0.6-0.8c1.6-0.7,2.8-1.5,3.5-2.5C141.7,56.1,141.9,56,142.3,56
					 M142.3,54c-0.9,0-1.7,0.4-2.2,1c-0.3,0.4-1.1,1.1-2.7,1.9c-1.1,0.4-1.8,1.5-1.8,2.6c0,1.5,1.2,2.7,2.7,2.7
					c0.4,0,0.7-0.1,1.1-0.2c1.3-0.5,2.2-0.9,2.7-1.2c1.6-0.8,2.5-1.4,3-2.2c0.8-1.3,0.5-2.8-0.6-3.8l0,0
					C143.9,54.3,143.1,54,142.3,54L142.3,54z"/>
			</g>
			<g>
				<path class="st5" d="M152.9,70.9l-0.2,0.2c-0.4,0.4-0.5,0.4-0.5,0.4s-0.4,0-0.7-1.9c-0.1-0.2-0.1-0.7-0.3-2.7l-0.3-2.9v-0.1
					c-0.4-1.8-1.3-2.2-2-2.2c-0.6,0-1.7,0.5-4.2,4.5l0.5-2.7v-0.1c-0.1-0.2-0.1-0.4-0.2-0.7v-0.1c-0.1-0.2-0.4-0.5-0.9-0.5
					s-1.2,0.3-1.3,1.6c-0.1,0.9-0.1,1.6-0.2,2.1c-0.9,6.3-1,6.5-1,6.5c-0.1,0.3,0.1,0.6,0.2,0.8c0.2,0.2,0.4,0.3,0.8,0.3
					c0.4,0,0.8-0.2,1-1c0.5-1.8,1.5-3.8,2.8-5.9c1.4-2.1,1.9-2.8,2.2-3c0.1,0.1,0.1,0.4,0.2,0.9c0.2,1.4,0.3,2.5,0.3,3.2
					c0.4,3.6,1.4,5.3,3,5.3c0.3,0,0.6-0.1,0.9-0.4c0.4-0.3,0.7-0.8,0.7-1.3V71L152.9,70.9z"/>
				<path class="st0" d="M148.9,61.8c0.7,0,1.6,0.4,2,2.2v0.1l0.3,2.8c0.2,2,0.3,2.5,0.3,2.7c0.3,1.9,0.7,1.9,0.7,1.9s0.2,0,0.5-0.4
					l0.2-0.2l1,0.3v0.2c0.1,0.5-0.2,1-0.7,1.3c-0.3,0.2-0.7,0.4-0.9,0.4c-1.6,0-2.7-1.8-3-5.3c-0.1-0.8-0.2-1.9-0.3-3.2
					c-0.1-0.5-0.1-0.8-0.2-0.9c-0.2,0.2-0.8,0.8-2.2,3c-1.3,2.1-2.2,4.1-2.8,5.9c-0.2,0.8-0.7,1-1,1s-0.5-0.1-0.8-0.3
					c-0.2-0.2-0.2-0.4-0.2-0.8c0-0.1,0-0.3,1-6.5c0.1-0.5,0.1-1.3,0.2-2.1c0.1-1.3,0.8-1.6,1.3-1.6s0.8,0.3,0.9,0.5v0.1
					c0.1,0.2,0.1,0.4,0.2,0.7v0.1l-0.5,2.7C147.2,62.3,148.3,61.8,148.9,61.8 M148.9,59.8c-0.9,0-1.8,0.4-2.7,1.3
					c-0.5-0.5-1.3-0.8-2.1-0.8c-1.3,0-3,0.9-3.2,3.3c0,0,0,0,0,0.1c-0.1,0.9-0.1,1.6-0.2,2.1c-0.9,6-1,6.4-1,6.6
					c-0.1,0.9,0.2,1.7,0.7,2.2c0.5,0.6,1.3,0.9,2.2,0.9c1.1,0,2.4-0.7,3-2.4c0.4-1.3,1-2.6,1.8-4.1c0.2,1.5,0.6,2.8,1.2,3.7
					c0.9,1.5,2.1,2.3,3.7,2.3c0.7,0,1.4-0.2,2.1-0.7c1-0.7,1.5-1.8,1.5-3v-0.2c-0.1-0.8-0.5-1.5-1.4-1.8l-1-0.3
					c-0.1,0-0.1,0-0.1-0.1c-0.1-0.3-0.1-0.9-0.2-2.2l-0.3-2.9c0-0.1,0-0.1,0-0.1v-0.1c0-0.1,0-0.1,0-0.1
					C152.1,60,149.6,59.8,148.9,59.8L148.9,59.8z"/>
			</g>
			<g>
				<path class="st5" d="M170.9,66.6h-0.8l-0.1,0.2c-0.5,1.2-1.4,2.3-2.6,3.5c-1.3,1.1-2.4,1.7-3.3,1.7c-1.1,0-1.2-0.4-1.2-0.9
					c0-0.6,0.1-1.3,0.3-2.1c0.2-0.6,0.3-0.9,0.3-1.1c0.3,0.2,0.8,0.3,1.4,0.3c1.4,0,2.6-0.8,3.7-2.5c0.9-1.4,1.3-2.6,1.3-3.7
					c0-0.4-0.1-0.8-0.3-1.2c-0.3-0.5-0.8-0.8-1.3-0.8c-1.5,0-3.1,1.3-4.8,3.8c-1.6,2.3-2.4,4.3-2.5,5.9c-0.1,1.2,0.2,2.1,0.7,2.8
					c0.5,0.8,1.4,1.2,2.5,1.2c1.4,0,2.8-0.6,4.2-1.7c1.4-1.2,2.5-2.7,3-4.4c0.1-0.2,0.1-0.5-0.3-0.9L170.9,66.6z M167.3,62.3
					c0.3-0.3,0.5-0.5,0.9-0.6l0,0c0,0.1,0,0.1,0,0.1c0,0.8-0.4,1.8-1.3,2.9c-0.8,1-1.6,1.6-2.2,1.6h-0.1c-0.2,0-0.3-0.1-0.3-0.1
					C164.4,66,165,65,167.3,62.3z M168.2,61.7L168.2,61.7v-0.3l0,0V61.7z"/>
				<path class="st0" d="M168.2,60c0.5,0,1,0.3,1.3,0.8c0.2,0.4,0.3,0.8,0.3,1.2c0,1-0.4,2.3-1.3,3.7c-1,1.6-2.3,2.5-3.7,2.5
					c-0.5,0-1-0.1-1.4-0.3c-0.1,0.2-0.2,0.5-0.3,1.1c-0.2,0.8-0.3,1.5-0.3,2.1c0,0.4,0.2,0.9,1.2,0.9c0.9,0,2-0.5,3.3-1.7
					c1.3-1.1,2.1-2.2,2.6-3.5l0.1-0.2h0.8l0.1,0.1c0.4,0.4,0.4,0.7,0.3,0.9c-0.6,1.8-1.6,3.3-3,4.4c-1.4,1.2-2.7,1.7-4.2,1.7
					c-1.1,0-1.9-0.4-2.5-1.2c-0.5-0.7-0.8-1.6-0.7-2.8c0.1-1.6,0.9-3.6,2.5-5.9C165.2,61.2,166.7,60,168.2,60 M168.2,61.7v-0.3V61.7
					L168.2,61.7 M164.6,66.4c0.7,0,1.4-0.5,2.2-1.6c0.9-1.1,1.3-2.1,1.3-2.9c0-0.1,0-0.1,0-0.1l0,0c-0.3,0.1-0.6,0.3-0.9,0.6
					c-2.2,2.6-2.8,3.6-3,4C164.4,66.4,164.5,66.4,164.6,66.4L164.6,66.4L164.6,66.4 M168.2,58c-2.9,0-5,2.7-6.4,4.7
					c-1.8,2.7-2.7,4.9-2.8,6.9c-0.1,1.6,0.3,3.1,1.1,4.2c0.7,0.9,1.9,1.9,4.1,1.9c1.9,0,3.7-0.7,5.4-2.2c1.7-1.4,2.9-3.2,3.6-5.3
					c0.4-1,0.1-2.2-0.8-3l-0.1-0.1c-0.3-0.3-0.6-0.4-1-0.5c0.3-0.9,0.5-1.8,0.5-2.6c0-0.8-0.2-1.5-0.6-2.2
					C170.6,58.7,169.5,58,168.2,58L168.2,58z"/>
			</g>
			<g>
				<path class="st5" d="M183.3,70.9l-0.2,0.2c-0.4,0.4-0.5,0.4-0.5,0.4s-0.4,0-0.7-1.9c0-0.2-0.1-0.7-0.3-2.7l-0.3-2.9v-0.1
					c-0.4-1.8-1.3-2.2-2-2.2c-0.6,0-1.7,0.5-4.2,4.5l0.5-2.7v-0.1c-0.1-0.2-0.1-0.4-0.2-0.7v-0.1c-0.1-0.2-0.4-0.5-0.9-0.5
					s-1.2,0.3-1.3,1.6c-0.1,0.9-0.1,1.6-0.2,2.1c-0.9,6.3-1,6.5-1,6.5c-0.1,0.3,0.1,0.6,0.2,0.8c0.2,0.2,0.4,0.3,0.8,0.3
					s0.8-0.2,1-1c0.5-1.8,1.5-3.8,2.8-5.9c1.4-2.1,1.9-2.8,2.2-3c0.1,0.1,0.1,0.4,0.2,0.9c0.2,1.4,0.3,2.5,0.3,3.2
					c0.4,3.6,1.4,5.3,3,5.3c0.3,0,0.6-0.1,0.9-0.4c0.4-0.3,0.7-0.8,0.7-1.3V71L183.3,70.9z"/>
				<path class="st0" d="M179.3,61.8c0.7,0,1.6,0.4,2,2.2v0.1l0.3,2.9c0.2,2,0.3,2.5,0.3,2.7c0.3,1.9,0.7,1.9,0.7,1.9s0.2,0,0.5-0.4
					l0.2-0.2l1,0.3v0.2c0,0.5-0.2,1-0.7,1.3c-0.3,0.2-0.7,0.4-0.9,0.4c-1.7,0-2.7-1.8-3-5.3c-0.1-0.8-0.2-1.9-0.3-3.2
					c-0.1-0.5-0.1-0.8-0.2-0.9c-0.2,0.2-0.8,0.8-2.2,3c-1.3,2.1-2.3,4.1-2.8,5.9c-0.2,0.8-0.7,1-1,1s-0.6-0.1-0.8-0.3
					c-0.2-0.2-0.2-0.4-0.2-0.8c0-0.1,0-0.3,1-6.5c0.1-0.5,0.1-1.3,0.2-2.1c0.1-1.3,0.8-1.6,1.3-1.6s0.8,0.3,0.9,0.5l0,0
					c0.1,0.2,0.1,0.4,0.2,0.7v0.1l-0.5,2.7C177.6,62.3,178.7,61.8,179.3,61.8 M179.3,59.8c-0.9,0-1.8,0.4-2.7,1.3
					c-0.5-0.5-1.3-0.8-2.1-0.8c-1.3,0-3,0.9-3.2,3.3c0,0,0,0,0,0.1c-0.1,0.9-0.1,1.6-0.2,2.1c-0.9,5.9-1,6.4-1,6.6
					c-0.1,0.9,0.2,1.7,0.7,2.2c0.5,0.6,1.3,0.9,2.2,0.9c1.1,0,2.4-0.7,3-2.4c0.4-1.3,1-2.6,1.8-4.1c0.2,1.5,0.6,2.8,1.2,3.7
					c0.8,1.5,2.1,2.3,3.7,2.3c0.7,0,1.4-0.2,2.1-0.7c1-0.7,1.5-1.8,1.5-3v-0.2c-0.1-0.8-0.6-1.5-1.4-1.8l-1-0.3
					c-0.1,0-0.1,0-0.1-0.1c-0.1-0.3-0.1-0.9-0.2-2.2l-0.3-2.9c0-0.1,0-0.1,0-0.1v-0.1c0-0.1,0-0.1,0-0.1
					C182.5,60,180.1,59.8,179.3,59.8L179.3,59.8z"/>
			</g>
			<g>
				<path class="st5" d="M199.9,66l0.6-0.7v-0.1c0-0.4-0.2-1-1.3-1.3c-0.5-0.2-1-0.2-1.5-0.2s-1,0.1-1.8,0.3
					c-0.3,0.1-0.5,0.2-0.7,0.2c0.1-0.7,0.1-1.4,0.3-2.1c0.1-0.3,0.3-1.2,0.6-2.6c0.2-0.8,0.2-0.9,0.2-1c0-0.3-0.1-0.5-0.1-0.6
					c0.8-0.3,1.9-0.7,3.1-1c1.5-0.4,2.6-0.5,3.4-0.5c1.5,0,2.1,0.3,2.1,0.5c0,0.7,0.3,0.9,0.5,1.1l0.1,0.1l0.1-0.1
					c0.3-0.1,0.9-0.3,0.9-1.4c0-0.9-0.4-1.5-1.4-1.9c-0.6-0.3-1.3-0.4-2.1-0.4c-1.9,0-5.3,1-10.2,3c-1.2,0.5-1.8,1-1.8,1.8
					s0.4,1.2,1.1,1.2h0.1c0.2-0.1,0.4-0.2,0.8-0.4l1-0.6c-0.1,0.2-0.1,0.4-0.2,0.7c0,0.1,0,0.1-0.3,2.8c-0.1,0.9-0.2,1.6-0.2,2.2
					l-1.1,0.4H192c-0.8,0.4-0.9,0.9-0.9,1.3c0,0.7,0.4,1,1.1,1c0.1,0,0.2,0,0.9-0.4c0.1,5.5,1.3,8.2,3.5,8.2c0.2,0,0.4-0.1,0.7-0.2
					c0.4-0.2,0.5-0.5,0.5-0.7c0-0.5-0.4-0.9-1-0.9h-0.2h-0.1h-0.1c-0.3,0-1.4-0.5-1.4-7.6c0.1-0.1,0.4-0.2,1.2-0.3
					c0.7-0.1,1.3-0.2,1.7-0.2c0.1,0,0.3,0.1,0.6,0.2c0.4,0.2,0.8,0.3,1.2,0.4L199.9,66z"/>
				<path class="st0" d="M202.9,54c0.8,0,1.5,0.2,2.1,0.4c0.9,0.4,1.4,1.1,1.4,1.9c0,1-0.6,1.3-0.9,1.4l-0.1,0.1l-0.1-0.1
					c-0.3-0.2-0.5-0.4-0.5-1.1c0-0.3-0.5-0.5-2.1-0.5c-0.7,0-1.9,0.2-3.4,0.5c-1.3,0.3-2.3,0.7-3.1,1c0.1,0.2,0.1,0.4,0.1,0.6
					c0,0.1,0,0.3-0.2,1c-0.3,1.4-0.5,2.3-0.6,2.6c-0.2,0.8-0.3,1.5-0.3,2.1c0.2-0.1,0.4-0.1,0.7-0.2c0.8-0.2,1.3-0.3,1.8-0.3
					s1,0.1,1.5,0.2c1,0.3,1.3,0.9,1.3,1.3V65l-0.6,0.7h-0.2c-0.4-0.1-0.8-0.2-1.2-0.4c-0.3-0.2-0.5-0.2-0.6-0.2
					c-0.4,0-0.9,0.1-1.7,0.2s-1,0.2-1.2,0.3c0,7.1,1.1,7.6,1.4,7.6h0.1h0.1h0.2c0.6,0,1,0.3,1,0.9c0,0.2-0.1,0.5-0.5,0.7
					c-0.2,0.1-0.4,0.2-0.7,0.2c-2.2,0-3.5-2.7-3.5-8.2c-0.7,0.4-0.8,0.4-0.9,0.4c-0.7,0-1.1-0.4-1.1-1c0-0.4,0.2-0.9,0.9-1.3h0.1
					l1.1-0.4c0.1-0.6,0.2-1.3,0.2-2.2c0.2-2.7,0.3-2.8,0.3-2.8c0.1-0.3,0.1-0.5,0.2-0.7l-1,0.6c-0.3,0.2-0.6,0.3-0.8,0.4H192
					c-0.7,0-1.1-0.4-1.1-1.2s0.6-1.3,1.8-1.8C197.6,55,201,54,202.9,54 M202.9,52c-2.2,0-5.7,1-11,3.1c-2.5,1-3.1,2.5-3.1,3.6
					c0,1.6,1.1,2.9,2.6,3.1c0,0.1,0,0.3-0.1,0.4c0,0.3-0.1,0.7-0.1,0.9h-0.1H191c-0.1,0-0.1,0.1-0.1,0.1c-1.3,0.7-2.1,1.8-2.1,3.1
					s0.8,2.5,2.1,2.8c0.2,2,0.5,3.6,1,4.8c1.2,2.8,3.2,3.2,4.4,3.2c0.5,0,1.1-0.2,1.6-0.4c0.9-0.5,1.5-1.4,1.5-2.5
					c0-1.4-0.9-2.5-2.2-2.8c-0.2-0.6-0.3-1.8-0.4-4.1c0.3-0.1,0.5-0.1,0.7-0.1c0.6,0.3,1.2,0.4,1.8,0.5h0.2c0.1,0,0.2,0,0.2,0
					c0.5,0,1-0.2,1.4-0.7l0.6-0.7c0.3-0.4,0.5-0.8,0.5-1.4v-0.1c0-0.5-0.2-2.4-2.6-3.2l0,0c-0.7-0.2-1.4-0.3-2.1-0.3
					c-0.1,0-0.1,0-0.2,0c0.1-0.4,0.2-0.9,0.4-1.8c0.1-0.3,0.1-0.5,0.2-0.8c0.5-0.2,1-0.3,1.6-0.4c1.8-0.4,2.6-0.5,2.9-0.5
					c0.2,0,0.3,0,0.4,0c0.3,0.6,0.7,1.1,1.3,1.4l0.1,0.1c0.3,0.2,0.6,0.2,0.9,0.2c0.1,0,0.3,0,0.4-0.1l0.1-0.1
					c1.5-0.3,2.5-1.6,2.5-3.3c0-1.6-0.9-3-2.5-3.7l0,0C205,52.3,204,52,202.9,52L202.9,52z"/>
			</g>
			<g>
				<path class="st5" d="M210.6,69.8c-0.5,0-0.9,0.3-1.1,0.9l-0.1,0.1c-0.1,0.1-0.2,0.1-0.3,0.1c-0.3-0.1-0.4-0.6-0.4-1.4
					c0-0.5,0.3-2.1,0.7-4.8c0.1-0.4,0.1-0.7-0.2-1c0,0,0-0.1-0.1-0.1c0.3-0.3,0.5-0.7,0.5-1.6s-0.2-1.5-0.7-1.9
					c-0.3-0.2-0.6-0.3-0.9-0.3c-0.9,0-1.9,0.5-3.2,1.7c-1.6,1.4-3.1,3.1-4.4,5.2c-1.4,2.2-2.1,4-2.1,5.4c0,0.7,0.2,1.3,0.7,1.6
					c0.3,0.2,0.6,0.3,1,0.3c1,0,2.2-0.7,3.8-2.2c1-0.9,1.9-1.9,2.7-3c0.1,1.9,0.6,3,1.6,3.4c0.3,0.1,0.5,0.2,0.8,0.2
					c0.9,0,1.6-0.5,2-1.4c0.1-0.2,0.1-0.4,0.1-0.5C211.3,70.1,211,69.8,210.6,69.8z M207.7,63.6c-0.2,0.2-0.3,0.4-0.3,0.8
					c-0.1,0.6-0.4,1.3-0.9,2.1c-0.1,0.1-0.5,0.7-2.1,2.6c-2.2,2.7-3.3,3.3-3.9,3.3c-0.1,0-0.2,0-0.2-0.2c0-0.7,0.5-2.3,3.3-5.9
					c2.3-3.1,3.6-4.1,4.3-4.4c0,0.3-0.1,0.7-0.2,1c-0.1,0.1-0.1,0.2-0.1,0.3C207.5,63.3,207.6,63.5,207.7,63.6z"/>
				<path class="st0" d="M208.2,59.9c0.3,0,0.7,0.1,0.9,0.3c0.5,0.3,0.7,0.9,0.7,1.9c0,0.9-0.2,1.3-0.5,1.6c0,0,0,0.1,0.1,0.1
					c0.2,0.2,0.2,0.5,0.2,1c-0.5,2.6-0.7,4.2-0.7,4.8c0,0.8,0.2,1.4,0.4,1.4c0,0,0,0,0.1,0s0.2,0,0.2-0.1s0.1-0.1,0.1-0.1
					c0.2-0.6,0.5-0.9,1.1-0.9c0.4,0,0.7,0.3,0.7,0.8c0,0.2-0.1,0.3-0.1,0.5c-0.4,0.9-1,1.4-2,1.4c-0.3,0-0.5-0.1-0.8-0.2
					c-1-0.4-1.6-1.5-1.6-3.4c-0.8,1-1.8,2.1-2.7,3c-1.6,1.5-2.9,2.2-3.8,2.2c-0.4,0-0.7-0.1-1-0.3c-0.4-0.3-0.7-0.9-0.7-1.6
					c0-1.4,0.7-3.1,2.1-5.4c1.3-2.1,2.8-3.8,4.4-5.2C206.3,60.5,207.3,59.9,208.2,59.9 M200.4,72.4c0.5,0,1.6-0.6,3.9-3.3
					c1.6-2,2-2.5,2.1-2.6c0.5-0.8,0.9-1.5,0.9-2.1c0.1-0.3,0.2-0.5,0.3-0.8c-0.1-0.1-0.2-0.3-0.2-0.5c0-0.1,0-0.2,0.1-0.3
					c0.2-0.4,0.2-0.7,0.2-1c-0.7,0.3-2,1.4-4.3,4.4c-2.7,3.6-3.3,5.2-3.3,5.9C200.2,72.4,200.3,72.4,200.4,72.4 M208.2,58
					c-1.4,0-2.8,0.7-4.5,2.1c-1.8,1.5-3.3,3.4-4.8,5.6c-1.6,2.6-2.4,4.7-2.4,6.5c0,1.4,0.5,2.5,1.4,3.2c0.6,0.5,1.4,0.7,2.1,0.7
					c1.5,0,3.2-0.9,5.2-2.7c0.2-0.2,0.4-0.4,0.5-0.5c0.5,0.7,1.2,1.2,1.8,1.4c0.5,0.2,1,0.3,1.5,0.3c1.8,0,3.2-1,3.8-2.7
					c0,0,0,0,0-0.1c0.2-0.4,0.2-0.8,0.2-1.3c0-1.5-1-2.6-2.4-2.7c0.1-0.7,0.3-1.5,0.5-2.8c0.1-0.4,0.1-0.8,0.1-1.1
					c0.2-0.5,0.4-1.1,0.4-1.9c0-2-0.9-3-1.6-3.5C209.6,58.2,208.9,58,208.2,58L208.2,58z"/>
			</g>
			<g>
				<path class="st5" d="M231.6,70.1c-0.3,0-0.5,0.2-0.8,0.6c-0.2,0.3-0.4,0.3-0.5,0.3c-0.2,0-0.9-0.3-1.1-3.8
					c-0.1-1.5-0.2-2.6-0.2-3.3l0,0c-0.2-1.4-0.7-2.1-1.5-2.1c-0.5,0-1.3,0.4-3.2,3.7c-0.5,0.9-1.2,1.8-1.9,2.8s-1.2,1.4-1.4,1.6
					c-0.1-0.3-0.1-0.8-0.1-1.3c0-0.4,0-0.9,0.1-1.6c0.1-0.8,0.1-1.3,0.1-1.5c0.1-1.5-0.2-2.5-0.7-3c-0.2-0.3-0.5-0.4-0.9-0.4
					c-0.8,0-1.9,1-3.2,3c-0.3,0.5-0.9,1.4-1.6,2.7c0.1-1.8,0.4-3.6,0.9-5.3c0.1-0.2,0.1-0.5-0.3-0.8c-0.3-0.2-0.5-0.3-0.8-0.3
					c-0.7,0-0.9,0.9-1.2,1.6c-0.2,0.9-0.4,2-0.5,3.2c-0.1,1.4-0.1,3-0.1,4.9c0,0.3,0.1,0.7,0.2,1.2c0.2,0.6,0.4,1.3,0.9,1.3
					c0.6,0,1-0.3,1-0.9c0.1-0.9,0.8-2.6,2.2-5.2c1.2-2.1,1.8-3,2-3.4c0,0.1,0,0.2,0,0.2c-0.1,2.5-0.2,4-0.2,4.5
					c0.1,1.9,0.6,2.9,1.6,2.9c0.9,0,2-1,3.5-3c0.1-0.2,1-1.6,2.7-4.2c0.2-0.3,0.3-0.5,0.4-0.7c0,0.1,0,0.2,0,0.2
					c0.1,0.4,0.1,1,0.1,1.8v1.5l0,0c0,0.9,0.2,1.8,0.7,2.8c0.6,1.4,1.4,2.1,2.5,2.1c0.3,0,0.7-0.1,1.2-0.4c0.6-0.4,0.9-0.8,0.9-1.4
					C232.4,70.5,232.1,70.1,231.6,70.1z"/>
				<path class="st0" d="M214.5,61.6c0.3,0,0.6,0.1,0.8,0.3c0.4,0.3,0.4,0.6,0.3,0.8c-0.5,1.7-0.8,3.5-0.9,5.3
					c0.7-1.3,1.3-2.2,1.6-2.7c1.3-2.1,2.4-3,3.2-3c0.3,0,0.7,0.1,0.9,0.4c0.5,0.5,0.7,1.5,0.7,3c0,0.2-0.1,0.7-0.1,1.5
					c-0.1,0.7-0.1,1.3-0.1,1.6c0,0.5,0.1,0.9,0.1,1.3c0.3-0.2,0.7-0.7,1.4-1.6c0.7-1,1.4-2,1.9-2.8c1.9-3.3,2.7-3.7,3.2-3.7
					c0.8,0,1.3,0.7,1.5,2.1l0,0c0.1,0.7,0.1,1.9,0.2,3.3c0.2,3.5,0.9,3.8,1.1,3.8c0.1,0,0.3,0,0.5-0.3c0.3-0.4,0.5-0.6,0.8-0.6
					c0.5,0,0.8,0.3,0.8,0.8s-0.3,1-0.9,1.4c-0.4,0.3-0.8,0.4-1.2,0.4c-1,0-1.9-0.7-2.5-2.1c-0.4-1-0.7-2-0.7-2.8l0,0v-1.5
					c0-0.8,0-1.4-0.1-1.8c0-0.1,0-0.2,0-0.2c-0.1,0.2-0.2,0.4-0.4,0.7c-1.6,2.6-2.5,4-2.7,4.2c-1.5,2.1-2.6,3-3.5,3
					c-1,0-1.5-1-1.6-2.9c0-0.5,0-2,0.2-4.5c0-0.1,0-0.2,0-0.2c-0.3,0.4-0.9,1.3-2,3.4c-1.4,2.5-2.1,4.3-2.2,5.2
					c-0.1,0.5-0.4,0.9-1,0.9c-0.5,0-0.7-0.6-0.9-1.3c-0.1-0.5-0.2-0.9-0.2-1.2c0-1.9,0.1-3.5,0.1-4.9c0.1-1.3,0.2-2.4,0.5-3.2
					C213.6,62.5,213.8,61.6,214.5,61.6 M214.5,59.6c-1.5,0-2.5,1-3.1,3.1c-0.3,1-0.4,2.2-0.5,3.6s-0.2,3.1-0.2,5
					c0,0.4,0.1,0.9,0.2,1.6V73c0.5,2.2,1.8,2.7,2.7,2.7c1.6,0,2.8-1.1,3-2.7c0-0.1,0.1-0.5,0.6-1.6c0.7,2.2,2.4,2.5,3.2,2.5
					c2.1,0,3.7-2,5.1-3.9l0,0c0.1,0.4,0.3,0.8,0.4,1.2c1.3,2.8,3.2,3.3,4.2,3.3c0.7,0,1.4-0.2,2.1-0.7l0,0c1.6-1,1.9-2.4,1.9-3.1
					c0-1.6-1.2-2.8-2.7-2.8c-0.1,0-0.3,0-0.4,0.1c-0.1-0.3-0.1-0.7-0.1-1.1c-0.1-1.5-0.2-2.6-0.2-3.3v-0.1l0,0v-0.1
					c-0.5-3.5-2.7-3.8-3.4-3.8c-1.5,0-2.8,1.1-4.5,4.1c-0.1-1-0.4-2-1.2-2.7c-0.6-0.6-1.4-1-2.2-1c-0.9,0-1.6,0.4-2.4,0.9
					c-0.2-0.3-0.4-0.5-0.6-0.7C216,59.9,215.3,59.6,214.5,59.6L214.5,59.6z"/>
			</g>
			<g>
				<path class="st5" d="M237.4,71.9l-0.2-0.2l-0.2,0.1c-0.3,0.1-0.5,0.3-0.7,0.5h-0.1c-0.3,0-0.6-0.3-0.8-1l-0.4-1.8
					c0-0.2,0-0.5,0-1.5c0.1-1.7,0.3-3,0.6-3.6c0.4-1,0.4-1.3,0.4-1.5c0-0.7-0.4-1.2-1-1.2c-0.8,0-1.3,1-1.7,3.2
					c-0.2,1.4-0.3,2.5-0.3,3.5s0.2,2.1,0.5,3.2c0.5,1.6,1.4,2.5,2.5,2.5c0.3,0,0.6-0.1,0.9-0.3c0.4-0.3,0.7-0.6,0.7-1
					C237.8,72.4,237.7,72.2,237.4,71.9z"/>
				<path class="st0" d="M235.2,61.7c0.7,0,1,0.4,1,1.2c0,0.2-0.1,0.5-0.4,1.5c-0.3,0.7-0.5,1.9-0.6,3.6c0,1,0,1.3,0,1.5l0.4,1.8
					c0.2,0.7,0.5,1,0.8,1h0.1c0.2-0.2,0.4-0.4,0.7-0.5l0.2-0.1l0.2,0.2c0.3,0.3,0.4,0.5,0.4,0.8c0,0.4-0.2,0.8-0.7,1
					c-0.3,0.2-0.7,0.3-0.9,0.3c-1.1,0-2-0.8-2.5-2.5c-0.4-1.1-0.5-2.1-0.5-3.2c0-0.9,0.1-2.1,0.3-3.5
					C233.8,62.7,234.4,61.7,235.2,61.7 M235.2,59.7c-2.8,0-3.4,3.5-3.6,4.8c-0.2,1.5-0.4,2.7-0.4,3.8c0,1.3,0.2,2.5,0.7,3.8
					c1.1,3.3,3.2,3.8,4.4,3.8c0.7,0,1.3-0.2,1.9-0.6c1-0.6,1.6-1.6,1.6-2.7c0-0.6-0.2-1.5-1.1-2.3l-0.2-0.2
					c-0.4-0.3-0.8-0.5-1.3-0.5h0l-0.1-0.4c0-0.2,0-0.6,0-1.3c0.2-2,0.4-2.7,0.5-3c0.4-1,0.6-1.7,0.6-2.2
					C238.2,61.1,236.9,59.7,235.2,59.7L235.2,59.7z"/>
			</g>
			<g>
				<path class="st5" d="M235.3,58.8c0.7,0,1.2-0.4,1.2-1.3c0-0.8-0.4-1.2-1.2-1.2c-0.3,0-0.7,0.2-0.9,0.4s-0.3,0.5-0.3,0.8
					s0.1,0.5,0.3,0.8C234.7,58.7,235,58.8,235.3,58.8z"/>
				<path class="st0" d="M235.3,56.4c0.7,0,1.2,0.4,1.2,1.2s-0.4,1.3-1.2,1.3c-0.3,0-0.6-0.2-0.8-0.4s-0.3-0.6-0.3-0.9
					s0.1-0.5,0.3-0.8C234.7,56.5,235,56.4,235.3,56.4 M235.3,54.4c-0.9,0-1.8,0.4-2.4,1.2c-0.4,0.6-0.7,1.3-0.7,2s0.3,1.4,0.8,2
					c0.6,0.7,1.4,1.2,2.4,1.2c1.8,0,3.1-1.4,3.1-3.2C238.4,55.7,237.1,54.4,235.3,54.4L235.3,54.4z"/>
			</g>
			<g>
				<path class="st5" d="M243.5,72.9l-0.4-0.4h-0.7l-0.1,0.2c-0.1,0.1-0.1,0.1-0.3,0.1c-1,0-1.6-1.8-1.6-5.3c0-3.1,0.2-5.9,0.4-8.3
					c0.1-0.5,0.2-1.4,0.4-2.5l0.2-1.1c0.1-0.3,0.1-0.4,0.1-0.5V55c0-0.8-0.4-1.2-1.2-1.2c-0.5,0-1,0.4-1.5,4.9
					c-0.3,2.7-0.4,5.5-0.4,8.2c0,0.5,0,1,0,1.4c0.1,2,0.5,3.5,1.2,4.6c0.6,1,1.4,1.5,2.3,1.5c0.6,0,1.2-0.3,1.6-0.8l0.1-0.1v-0.1
					C243.6,73.2,243.6,73.1,243.5,72.9L243.5,72.9z"/>
				<path class="st0" d="M240.4,53.8c0.7,0,1.2,0.4,1.2,1.2v0.1c0,0.1-0.1,0.3-0.1,0.5l-0.2,1.1c-0.2,1.1-0.3,1.9-0.4,2.5
					c-0.3,2.4-0.4,5.2-0.4,8.3c0,3.5,0.5,5.3,1.6,5.3c0.2,0,0.2-0.1,0.3-0.1l0.1-0.2h0.7l0.4,0.4l0.1,0.2c0.1,0.1,0.1,0.2,0.1,0.4
					v0.1l-0.1,0.1c-0.4,0.5-0.9,0.8-1.6,0.8c-0.9,0-1.7-0.5-2.3-1.5c-0.7-1.1-1.1-2.6-1.2-4.6c0-0.4,0-0.9,0-1.4
					c0-2.7,0.2-5.4,0.4-8.2C239.4,54.1,239.9,53.8,240.4,53.8 M240.4,51.8c-0.7,0-1.9,0.3-2.6,2c-0.3,0.9-0.6,2.3-0.9,4.6
					c-0.3,2.8-0.5,5.6-0.5,8.4c0,0.5,0,1,0,1.5c0,0,0,0,0,0.1c0.1,2.3,0.6,4.2,1.5,5.6c1.3,2,2.8,2.4,3.9,2.4c1.2,0,2.3-0.5,3.1-1.5
					l0.1-0.1c0.3-0.4,0.4-0.8,0.4-1.3v-0.1c0-0.3-0.1-0.6-0.1-0.9c0-0.1,0-0.1-0.1-0.1l-0.1-0.2c-0.1-0.3-0.3-0.5-0.5-0.8l-0.4-0.4
					c-0.4-0.4-0.9-0.6-1.4-0.6h-0.4c-0.1-0.5-0.2-1.4-0.2-3c0-3,0.2-5.7,0.4-8.1c0.1-0.5,0.2-1.3,0.4-2.4l0,0l0.2-1
					c0.1-0.3,0.1-0.5,0.1-0.7c0-0.1,0-0.1,0-0.1V55c0-0.1,0-0.1,0-0.1C243.5,53.1,242.2,51.8,240.4,51.8L240.4,51.8z"/>
			</g>
			<g>
				<path class="st5" d="M247.8,71.9l-0.2-0.2l-0.2,0.1c-0.3,0.1-0.5,0.3-0.7,0.5h-0.1c-0.3,0-0.6-0.3-0.8-1l-0.4-1.8
					c0-0.2,0-0.5,0-1.5c0.1-1.7,0.3-3,0.6-3.6c0.4-1,0.4-1.3,0.4-1.5c0-0.7-0.4-1.2-1-1.2c-0.8,0-1.3,1-1.7,3.2
					c-0.2,1.4-0.3,2.5-0.3,3.5s0.2,2.1,0.5,3.2c0.5,1.6,1.4,2.5,2.5,2.5c0.3,0,0.6-0.1,0.9-0.3c0.5-0.3,0.7-0.6,0.7-1
					C248.2,72.4,248.1,72.2,247.8,71.9z"/>
				<path class="st0" d="M245.6,61.7c0.7,0,1,0.4,1,1.2c0,0.2-0.1,0.5-0.4,1.5c-0.3,0.7-0.5,1.9-0.6,3.6c0,1,0,1.3,0,1.5l0.4,1.8
					c0.2,0.7,0.5,1,0.8,1h0.1c0.2-0.2,0.4-0.4,0.7-0.5l0.2-0.1l0.2,0.2c0.3,0.3,0.4,0.5,0.4,0.8c0,0.4-0.2,0.8-0.7,1
					c-0.3,0.2-0.7,0.3-0.9,0.3c-1.1,0-2-0.8-2.5-2.5c-0.4-1.1-0.5-2.1-0.5-3.2c0-0.9,0.1-2.1,0.3-3.5
					C244.2,62.7,244.7,61.7,245.6,61.7 M245.6,59.7c-2.8,0-3.4,3.5-3.6,4.8c-0.2,1.5-0.4,2.7-0.4,3.8c0,1.3,0.2,2.5,0.7,3.8
					c1.1,3.3,3.2,3.8,4.4,3.8c0.7,0,1.3-0.2,1.9-0.6c1-0.6,1.6-1.6,1.6-2.7c0-0.6-0.2-1.5-1.1-2.3l-0.2-0.2
					c-0.4-0.3-0.8-0.5-1.3-0.5h-0.1l-0.1-0.4c0-0.2,0-0.6,0-1.3c0.2-2,0.4-2.7,0.5-3c0.4-1,0.6-1.7,0.6-2.2
					C248.5,61.1,247.3,59.7,245.6,59.7L245.6,59.7z"/>
			</g>
			<g>
				<path class="st5" d="M245.7,58.8c0.7,0,1.2-0.4,1.2-1.3c0-0.8-0.4-1.2-1.2-1.2c-0.3,0-0.7,0.2-0.9,0.4s-0.3,0.5-0.3,0.8
					s0.1,0.5,0.3,0.8C245.1,58.7,245.3,58.8,245.7,58.8z"/>
				<path class="st0" d="M245.7,56.4c0.7,0,1.2,0.4,1.2,1.2s-0.4,1.3-1.2,1.3c-0.3,0-0.6-0.2-0.8-0.4s-0.3-0.5-0.3-0.8
					s0.1-0.5,0.3-0.8C245.1,56.5,245.3,56.4,245.7,56.4 M245.7,54.4c-0.9,0-1.8,0.4-2.4,1.2c-0.5,0.6-0.7,1.3-0.7,2s0.3,1.4,0.8,2
					c0.6,0.7,1.4,1.2,2.4,1.2c1.8,0,3.1-1.4,3.1-3.2C248.8,55.7,247.5,54.4,245.7,54.4L245.7,54.4z"/>
			</g>
			<g>
				<path class="st5" d="M261.4,69.8c-0.5,0-0.9,0.3-1.1,0.9l-0.1,0.1c-0.1,0.1-0.2,0.1-0.3,0.1c-0.3-0.1-0.4-0.6-0.4-1.4
					c0-0.5,0.3-2.1,0.7-4.8c0.1-0.4,0.1-0.7-0.2-1c0,0,0-0.1-0.1-0.1c0.3-0.3,0.5-0.7,0.5-1.6s-0.2-1.5-0.7-1.9
					c-0.3-0.2-0.6-0.3-0.9-0.3c-0.9,0-1.9,0.5-3.2,1.7c-1.6,1.4-3.1,3.1-4.4,5.2c-1.4,2.2-2.1,4-2.1,5.4c0,0.7,0.2,1.3,0.7,1.6
					c0.3,0.2,0.6,0.3,0.9,0.3c1,0,2.2-0.7,3.9-2.2c1-0.9,1.9-1.9,2.7-3c0.1,1.9,0.6,3,1.6,3.4c0.3,0.1,0.5,0.2,0.8,0.2
					c0.9,0,1.6-0.5,2-1.4c0.1-0.2,0.1-0.4,0.1-0.5C262.1,70.1,261.8,69.8,261.4,69.8z M258.4,63.6c-0.2,0.2-0.3,0.4-0.3,0.8
					c-0.1,0.6-0.4,1.3-0.9,2.1c-0.1,0.1-0.5,0.7-2.1,2.6c-2.2,2.7-3.3,3.3-3.9,3.3c-0.1,0-0.2,0-0.2-0.2c0-0.7,0.5-2.3,3.3-5.9
					c2.3-3.1,3.6-4.1,4.3-4.4c0,0.3-0.1,0.7-0.2,1c-0.1,0.1-0.1,0.2-0.1,0.3C258.3,63.3,258.4,63.5,258.4,63.6z"/>
				<path class="st0" d="M258.9,59.9c0.3,0,0.7,0.1,0.9,0.3c0.5,0.3,0.7,0.9,0.7,1.9c0,0.9-0.2,1.3-0.5,1.6c0,0,0,0.1,0.1,0.1
					c0.2,0.2,0.3,0.5,0.2,1c-0.5,2.6-0.7,4.2-0.7,4.8c0,0.8,0.2,1.4,0.4,1.4h0.1c0.1,0,0.2,0,0.2-0.1s0.1-0.1,0.1-0.1
					c0.2-0.6,0.5-0.9,1.1-0.9c0.4,0,0.7,0.3,0.7,0.8c0,0.2-0.1,0.3-0.1,0.5c-0.4,0.9-1,1.4-2,1.4c-0.3,0-0.5-0.1-0.8-0.2
					c-1-0.4-1.6-1.5-1.6-3.4c-0.8,1-1.8,2.1-2.7,3c-1.6,1.5-2.9,2.2-3.9,2.2c-0.4,0-0.7-0.1-0.9-0.3c-0.4-0.3-0.7-0.9-0.7-1.6
					c0-1.4,0.7-3.1,2.1-5.4c1.3-2.1,2.8-3.8,4.4-5.2C257,60.5,258.1,59.9,258.9,59.9 M251.1,72.4c0.5,0,1.6-0.6,3.9-3.3
					c1.6-2,2-2.5,2.1-2.6c0.5-0.8,0.9-1.5,0.9-2.1c0.1-0.3,0.2-0.5,0.3-0.8c-0.1-0.1-0.2-0.3-0.2-0.5c0-0.1,0-0.2,0.1-0.3
					c0.2-0.4,0.2-0.7,0.2-1c-0.7,0.3-2,1.4-4.3,4.4c-2.7,3.6-3.3,5.2-3.3,5.9C251,72.4,251,72.4,251.1,72.4 M258.9,58
					c-1.4,0-2.8,0.7-4.5,2.1c-1.8,1.5-3.3,3.4-4.8,5.6c-1.6,2.6-2.4,4.7-2.4,6.5c0,1.4,0.5,2.5,1.4,3.2c0.6,0.5,1.4,0.7,2.1,0.7
					c1.5,0,3.2-0.9,5.2-2.7c0.2-0.2,0.4-0.4,0.5-0.5c0.5,0.7,1.2,1.2,1.8,1.4c0.5,0.2,1,0.3,1.5,0.3c1.8,0,3.2-1,3.8-2.7
					c0,0,0,0,0-0.1c0.2-0.4,0.2-0.8,0.2-1.3c0-1.5-1-2.6-2.4-2.7c0.1-0.7,0.3-1.5,0.5-2.8c0.1-0.4,0.1-0.8,0.1-1.1
					c0.2-0.5,0.4-1.1,0.4-1.9c0-2-0.9-3-1.6-3.5C260.4,58.2,259.6,58,258.9,58L258.9,58z"/>
			</g>
			<g>
				<path class="st5" d="M82.3,57.4c-1.7-1.3-3.7-2-5.9-2c-3.4,0-6.6,0.9-9.5,2.6c-1,0.6-1.5,1.1-1.5,1.6c0,0.8,0.4,1.2,1.2,1.2
					c0.2,0,0.3,0,1.9-1.2c0.4-0.3,0.8-0.5,1.2-0.7c-0.3,0.4-0.5,1.2-0.8,2.5c-0.3,1.4-0.4,2.5-0.4,3.2v2.1c0,1.4,0.2,2.9,0.6,4.4
					c0.6,2.2,1.5,3.3,2.7,3.3c0.3,0,0.5-0.1,0.8-0.4c0.5,0.3,1.2,0.5,2.2,0.5c2.7,0,5.1-1.3,7.2-3.8c2-2.4,3.1-5,3.1-7.7
					C85.2,60.7,84.2,58.8,82.3,57.4z M73,72.5L73,72.5L73,72.5L73,72.5c-0.2,0.2-0.4,0.2-0.5,0.2c-1.3,0-1.9-2.1-1.9-6.2
					c0-1.3,0.2-2.7,0.4-4.3c0-0.1,0.1-0.3,0.3-1.1c0.1-0.5,0.2-0.9,0.2-1.2c0-0.7-0.3-1.2-0.9-1.3c0.5-0.2,1.2-0.4,1.8-0.6
					c1.4-0.4,2.8-0.7,4.1-0.7c1.9,0,3.5,0.5,4.8,1.5c1.4,1,2.1,2.5,2.1,4.2c0,2.1-1,4.3-2.9,6.5s-3.9,3.2-6,3.3
					c-0.1,0-0.3-0.1-0.7-0.2l0.2-0.4L73,72.5z"/>
			</g>
			<g>
				<path class="st5" d="M88.4,58.8c0.7,0,1.2-0.4,1.2-1.3c0-0.8-0.4-1.2-1.2-1.2c-0.3,0-0.7,0.2-0.9,0.4c-0.2,0.3-0.3,0.5-0.3,0.8
					s0.1,0.5,0.3,0.8C87.8,58.7,88,58.8,88.4,58.8z"/>
			</g>
			<g>
				<path class="st5" d="M90.4,71.9l-0.2-0.2L90,71.8c-0.3,0.1-0.5,0.3-0.7,0.5h-0.1c-0.3,0-0.6-0.3-0.8-1L88,69.5
					c0-0.2,0-0.5,0-1.5c0.1-1.7,0.3-3,0.6-3.6c0.4-1,0.4-1.3,0.4-1.5c0-0.7-0.4-1.2-1-1.2c-0.8,0-1.3,1-1.7,3.2
					c-0.2,1.4-0.3,2.5-0.3,3.5s0.2,2.1,0.5,3.2c0.5,1.6,1.4,2.5,2.5,2.5c0.3,0,0.6-0.1,0.9-0.3c0.4-0.3,0.7-0.6,0.7-1
					C90.9,72.4,90.8,72.2,90.4,71.9z"/>
			</g>
			<g>
				<path class="st5" d="M101.7,62.5L101.7,62.5c0.2,0,0.3,0,0.4,0c0.6-0.2,0.7-0.5,0.7-0.7c0-0.5-0.4-0.9-1-0.9
					c-1.3,0-2.5,1.2-3.7,3.6C97.7,65.2,97,67,96,69.7l-0.2,0.5c-0.1-0.1-0.1-0.2-0.1-0.3c-1.6-4.3-1.7-4.5-1.7-4.5
					c-1.4-3.3-1.9-3.6-2.3-3.6c-0.2,0-0.4,0.1-0.7,0.2c-0.4,0.3-0.5,0.6-0.5,0.8c0,0.1,0.1,0.3,0.1,0.4l1,1.9
					c0.7,1.2,1.1,2.2,1.4,2.9c0.6,1.7,1,2.9,1.2,3.7c0.4,1.4,0.9,2,1.4,2c0.4,0,0.8-0.4,1.5-2.1l2.2-5.3
					C101,62.7,101.6,62.5,101.7,62.5z"/>
			</g>
			<g>
				<path class="st5" d="M110.4,66.6h-0.8l-0.1,0.2c-0.5,1.2-1.4,2.3-2.6,3.5c-1.3,1.1-2.4,1.7-3.3,1.7c-1.1,0-1.2-0.4-1.2-0.9
					c0-0.6,0.1-1.3,0.3-2.1c0.2-0.6,0.3-0.9,0.3-1.1c0.4,0.2,0.8,0.3,1.4,0.3c1.4,0,2.6-0.8,3.7-2.5c0.9-1.4,1.3-2.6,1.3-3.7
					c0-0.4-0.1-0.8-0.3-1.2c-0.3-0.5-0.8-0.8-1.3-0.8c-1.5,0-3.1,1.3-4.8,3.8c-1.6,2.3-2.4,4.3-2.5,5.9c-0.1,1.2,0.2,2.1,0.7,2.8
					c0.5,0.8,1.4,1.2,2.5,1.2c1.4,0,2.8-0.6,4.1-1.7c1.4-1.2,2.5-2.7,3.1-4.4c0.1-0.2,0.1-0.5-0.3-0.9L110.4,66.6z M106.8,62.3
					c0.3-0.3,0.5-0.5,0.9-0.6l0,0c0,0.1,0,0.1,0,0.1c0,0.8-0.4,1.8-1.3,2.9c-0.8,1-1.6,1.6-2.2,1.6h-0.1c-0.2,0-0.3-0.1-0.3-0.1
					C103.9,66,104.5,65,106.8,62.3z M107.7,61.7L107.7,61.7v-0.3l0,0V61.7z"/>
			</g>
			<g>
				<path class="st5" d="M118.3,61.5L118.3,61.5l0.1,0.2c0.1,0.2,0.1,0.3,0.2,0.4c0.1,0.2,0.3,0.4,0.6,0.4c0.4,0,0.6-0.2,0.7-0.3
					c0.2-0.2,0.2-0.5,0.2-0.9c-0.2-1-0.9-1.6-2-1.6c-1.3,0-2.5,1.1-3.6,3.3c0-0.3,0.1-0.5,0.1-0.8c0.1-0.3,0-0.6-0.2-0.9
					c-0.3-0.6-0.7-0.7-1-0.7s-0.6,0.2-0.8,0.4c-0.3,0.3-0.4,0.6-0.3,0.9c0.2,1.8,0.3,3.4,0.3,4.8s-0.1,3.1-0.3,5.2
					c-0.1,0.7,0.1,1.1,0.3,1.4c0.1,0.2,0.4,0.3,0.8,0.3c0.3,0,0.5-0.1,0.8-0.3c0.3-0.2,0.4-0.5,0.4-0.8c-0.1-2.1-0.1-2.5-0.1-2.5
					c0-1.4,0.2-2.6,0.5-3.7c0.3-1,1-2.1,1.9-3.3C117.6,61.7,118.1,61.5,118.3,61.5L118.3,61.5z"/>
			</g>
			<g>
				<path class="st5" d="M122.2,63.5c1.4-1.2,2.1-1.4,2.5-1.4c0.1,0,0.1,0,0.1,0c0.1,0,0.2,0.1,0.6,0.3c0.5,0.3,0.7,0.3,0.8,0.3
					c0.5,0,0.9-0.4,0.9-1c0-0.5-0.3-0.9-0.9-1.3c-0.5-0.3-0.9-0.4-1.3-0.4c-1.2,0-2.6,0.8-4.2,2.4c-1.6,1.6-2.5,3-2.5,4.1
					c0,0.5,0.4,1,1.2,1.3c0.5,0.2,1,0.3,1.5,0.3l2.9,0.1c0.4,0,0.7,0.1,1,0.3c0.4,0.3,0.5,0.5,0.5,0.8c0,0.7-0.9,1.3-1.6,1.6
					c-1,0.5-1.9,0.8-2.7,0.8c-0.5,0-0.5-0.2-0.5-0.3c0-0.1,0-0.2,0.1-0.2c0.1-0.2,0.2-0.5,0.2-0.9v-0.2l-0.2-0.1
					c-0.1-0.1-0.2-0.1-0.3-0.1c-0.4,0-0.7,0.2-1,0.7c-0.2,0.4-0.4,0.7-0.4,1c0,0.7,0.3,1.3,0.9,1.7c0.5,0.4,1,0.5,1.6,0.5
					c1.2,0,2.4-0.4,3.6-1.3c1.4-1,2-2.1,2-3.3c0-1.8-1.5-2.7-4.6-2.7c-1.7,0-1.9-0.3-1.9-0.3C120.4,65.4,121.1,64.5,122.2,63.5z"/>
			</g>
			<g>
				<path class="st5" d="M132.5,71.9l-0.2-0.2l-0.2,0.1c-0.3,0.1-0.5,0.3-0.7,0.5l0,0c-0.3,0-0.7-0.3-0.8-1l-0.4-1.8
					c0-0.2,0-0.5,0-1.5c0.1-1.7,0.3-3,0.6-3.6c0.4-1,0.4-1.3,0.4-1.5c0-0.7-0.4-1.2-1-1.2c-0.8,0-1.3,1-1.7,3.2
					c-0.2,1.4-0.3,2.5-0.3,3.5s0.2,2.1,0.5,3.2c0.5,1.6,1.4,2.5,2.5,2.5c0.3,0,0.6-0.1,0.9-0.3c0.4-0.3,0.7-0.6,0.7-1
					C132.9,72.4,132.7,72.2,132.5,71.9z"/>
			</g>
			<g>
				<path class="st5" d="M130.4,58.8c0.7,0,1.2-0.4,1.2-1.3c0-0.8-0.4-1.2-1.2-1.2c-0.3,0-0.7,0.2-0.9,0.4s-0.3,0.5-0.3,0.8
					s0.1,0.5,0.3,0.8C129.7,58.7,130.1,58.8,130.4,58.8z"/>
			</g>
			<g>
				<path class="st5" d="M139.2,60.5c-0.3,0-0.8,0.2-1.5,0.5c-0.6,0.3-1,0.6-1.2,0.9c-0.1,0-0.2,0-0.3,0c-0.8,0-1.6,0.9-2.4,3
					c-0.8,1.9-1.2,3.6-1.2,5.3c0,1,0.3,1.9,0.8,2.5c0.5,0.7,1.3,1,2.1,1c0.1,0,0.2,0,0.3,0c1.6-0.2,3.1-1.5,4.5-3.9
					c1.2-2.1,1.7-3.8,1.6-5.1C142,61.9,141,60.5,139.2,60.5z M139.2,62.2c0.6,0,0.9,0.7,0.9,2.1c0,1.1-0.5,2.6-1.5,4.4
					c-1,2.1-2.1,3.1-3.2,3.1c-0.5,0-0.8-0.7-0.8-2.1c0-1.8,0.8-3.7,2.3-5.8c0.4-0.5,0.5-0.8,0.5-1C138.1,62.5,138.7,62.2,139.2,62.2
					z"/>
			</g>
			<g>
				<path class="st5" d="M138.3,60.3c0.1,0,0.3,0,0.4-0.1c1.3-0.5,2.1-0.9,2.6-1.1c1.2-0.5,1.9-1,2.2-1.5c0.3-0.4,0.2-0.9-0.2-1.2
					c-0.3-0.2-0.7-0.4-1-0.4s-0.5,0.1-0.7,0.3c-0.7,0.9-1.9,1.8-3.5,2.5c-0.5,0.2-0.6,0.5-0.6,0.8C137.5,59.9,137.7,60.3,138.3,60.3
					z"/>
			</g>
			<g>
				<path class="st5" d="M152.9,70.9l-0.2,0.2c-0.4,0.4-0.5,0.4-0.5,0.4s-0.4,0-0.7-1.9c-0.1-0.2-0.1-0.7-0.3-2.7l-0.3-2.9v-0.1
					c-0.4-1.8-1.3-2.2-2-2.2c-0.6,0-1.7,0.5-4.2,4.5l0.5-2.7v-0.1c-0.1-0.2-0.1-0.4-0.2-0.7v-0.1c-0.1-0.2-0.4-0.5-0.9-0.5
					s-1.2,0.3-1.3,1.6c-0.1,0.9-0.1,1.6-0.2,2.1c-0.9,6.3-1,6.5-1,6.5c-0.1,0.3,0.1,0.6,0.2,0.8c0.2,0.2,0.4,0.3,0.8,0.3
					c0.4,0,0.8-0.2,1-1c0.5-1.8,1.5-3.8,2.8-5.9c1.4-2.1,1.9-2.8,2.2-3c0.1,0.1,0.1,0.4,0.2,0.9c0.2,1.4,0.3,2.5,0.3,3.2
					c0.4,3.6,1.4,5.3,3,5.3c0.3,0,0.6-0.1,0.9-0.4c0.4-0.3,0.7-0.8,0.7-1.3V71L152.9,70.9z"/>
			</g>
			<g>
				<path class="st5" d="M170.9,66.6h-0.8l-0.1,0.2c-0.5,1.2-1.4,2.3-2.6,3.5c-1.3,1.1-2.4,1.7-3.3,1.7c-1.1,0-1.2-0.4-1.2-0.9
					c0-0.6,0.1-1.3,0.3-2.1c0.2-0.6,0.3-0.9,0.3-1.1c0.3,0.2,0.8,0.3,1.4,0.3c1.4,0,2.6-0.8,3.7-2.5c0.9-1.4,1.3-2.6,1.3-3.7
					c0-0.4-0.1-0.8-0.3-1.2c-0.3-0.5-0.8-0.8-1.3-0.8c-1.5,0-3.1,1.3-4.8,3.8c-1.6,2.3-2.4,4.3-2.5,5.9c-0.1,1.2,0.2,2.1,0.7,2.8
					c0.5,0.8,1.4,1.2,2.5,1.2c1.4,0,2.8-0.6,4.2-1.7c1.4-1.2,2.5-2.7,3-4.4c0.1-0.2,0.1-0.5-0.3-0.9L170.9,66.6z M167.3,62.3
					c0.3-0.3,0.5-0.5,0.9-0.6l0,0c0,0.1,0,0.1,0,0.1c0,0.8-0.4,1.8-1.3,2.9c-0.8,1-1.6,1.6-2.2,1.6h-0.1c-0.2,0-0.3-0.1-0.3-0.1
					C164.4,66,165,65,167.3,62.3z M168.2,61.7L168.2,61.7v-0.3l0,0V61.7z"/>
			</g>
			<g>
				<path class="st5" d="M183.3,70.9l-0.2,0.2c-0.4,0.4-0.5,0.4-0.5,0.4s-0.4,0-0.7-1.9c0-0.2-0.1-0.7-0.3-2.7l-0.3-2.9v-0.1
					c-0.4-1.8-1.3-2.2-2-2.2c-0.6,0-1.7,0.5-4.2,4.5l0.5-2.7v-0.1c-0.1-0.2-0.1-0.4-0.2-0.7v-0.1c-0.1-0.2-0.4-0.5-0.9-0.5
					s-1.2,0.3-1.3,1.6c-0.1,0.9-0.1,1.6-0.2,2.1c-0.9,6.3-1,6.5-1,6.5c-0.1,0.3,0.1,0.6,0.2,0.8c0.2,0.2,0.4,0.3,0.8,0.3
					s0.8-0.2,1-1c0.5-1.8,1.5-3.8,2.8-5.9c1.4-2.1,1.9-2.8,2.2-3c0.1,0.1,0.1,0.4,0.2,0.9c0.2,1.4,0.3,2.5,0.3,3.2
					c0.4,3.6,1.4,5.3,3,5.3c0.3,0,0.6-0.1,0.9-0.4c0.4-0.3,0.7-0.8,0.7-1.3V71L183.3,70.9z"/>
			</g>
			<g>
				<path class="st5" d="M199.9,66l0.6-0.7v-0.1c0-0.4-0.2-1-1.3-1.3c-0.5-0.2-1-0.2-1.5-0.2s-1,0.1-1.8,0.3
					c-0.3,0.1-0.5,0.2-0.7,0.2c0.1-0.7,0.1-1.4,0.3-2.1c0.1-0.3,0.3-1.2,0.6-2.6c0.2-0.8,0.2-0.9,0.2-1c0-0.3-0.1-0.5-0.1-0.6
					c0.8-0.3,1.9-0.7,3.1-1c1.5-0.4,2.6-0.5,3.4-0.5c1.5,0,2.1,0.3,2.1,0.5c0,0.7,0.3,0.9,0.5,1.1l0.1,0.1l0.1-0.1
					c0.3-0.1,0.9-0.3,0.9-1.4c0-0.9-0.4-1.5-1.4-1.9c-0.6-0.3-1.3-0.4-2.1-0.4c-1.9,0-5.3,1-10.2,3c-1.2,0.5-1.8,1-1.8,1.8
					s0.4,1.2,1.1,1.2h0.1c0.2-0.1,0.4-0.2,0.8-0.4l1-0.6c-0.1,0.2-0.1,0.4-0.2,0.7c0,0.1,0,0.1-0.3,2.8c-0.1,0.9-0.2,1.6-0.2,2.2
					l-1.1,0.4H192c-0.8,0.4-0.9,0.9-0.9,1.3c0,0.7,0.4,1,1.1,1c0.1,0,0.2,0,0.9-0.4c0.1,5.5,1.3,8.2,3.5,8.2c0.2,0,0.4-0.1,0.7-0.2
					c0.4-0.2,0.5-0.5,0.5-0.7c0-0.5-0.4-0.9-1-0.9h-0.2h-0.1h-0.1c-0.3,0-1.4-0.5-1.4-7.6c0.1-0.1,0.4-0.2,1.2-0.3
					c0.7-0.1,1.3-0.2,1.7-0.2c0.1,0,0.3,0.1,0.6,0.2c0.4,0.2,0.8,0.3,1.2,0.4L199.9,66z"/>
			</g>
			<g>
				<path class="st5" d="M210.6,69.8c-0.5,0-0.9,0.3-1.1,0.9l-0.1,0.1c-0.1,0.1-0.2,0.1-0.3,0.1c-0.3-0.1-0.4-0.6-0.4-1.4
					c0-0.5,0.3-2.1,0.7-4.8c0.1-0.4,0.1-0.7-0.2-1c0,0,0-0.1-0.1-0.1c0.3-0.3,0.5-0.7,0.5-1.6s-0.2-1.5-0.7-1.9
					c-0.3-0.2-0.6-0.3-0.9-0.3c-0.9,0-1.9,0.5-3.2,1.7c-1.6,1.4-3.1,3.1-4.4,5.2c-1.4,2.2-2.1,4-2.1,5.4c0,0.7,0.2,1.3,0.7,1.6
					c0.3,0.2,0.6,0.3,1,0.3c1,0,2.2-0.7,3.8-2.2c1-0.9,1.9-1.9,2.7-3c0.1,1.9,0.6,3,1.6,3.4c0.3,0.1,0.5,0.2,0.8,0.2
					c0.9,0,1.6-0.5,2-1.4c0.1-0.2,0.1-0.4,0.1-0.5C211.3,70.1,211,69.8,210.6,69.8z M207.7,63.6c-0.2,0.2-0.3,0.4-0.3,0.8
					c-0.1,0.6-0.4,1.3-0.9,2.1c-0.1,0.1-0.5,0.7-2.1,2.6c-2.2,2.7-3.3,3.3-3.9,3.3c-0.1,0-0.2,0-0.2-0.2c0-0.7,0.5-2.3,3.3-5.9
					c2.3-3.1,3.6-4.1,4.3-4.4c0,0.3-0.1,0.7-0.2,1c-0.1,0.1-0.1,0.2-0.1,0.3C207.5,63.3,207.6,63.5,207.7,63.6z"/>
			</g>
			<g>
				<path class="st5" d="M231.6,70.1c-0.3,0-0.5,0.2-0.8,0.6c-0.2,0.3-0.4,0.3-0.5,0.3c-0.2,0-0.9-0.3-1.1-3.8
					c-0.1-1.5-0.2-2.6-0.2-3.3l0,0c-0.2-1.4-0.7-2.1-1.5-2.1c-0.5,0-1.3,0.4-3.2,3.7c-0.5,0.9-1.2,1.8-1.9,2.8s-1.2,1.4-1.4,1.6
					c-0.1-0.3-0.1-0.8-0.1-1.3c0-0.4,0-0.9,0.1-1.6c0.1-0.8,0.1-1.3,0.1-1.5c0.1-1.5-0.2-2.5-0.7-3c-0.2-0.3-0.5-0.4-0.9-0.4
					c-0.8,0-1.9,1-3.2,3c-0.3,0.5-0.9,1.4-1.6,2.7c0.1-1.8,0.4-3.6,0.9-5.3c0.1-0.2,0.1-0.5-0.3-0.8c-0.3-0.2-0.5-0.3-0.8-0.3
					c-0.7,0-0.9,0.9-1.2,1.6c-0.2,0.9-0.4,2-0.5,3.2c-0.1,1.4-0.1,3-0.1,4.9c0,0.3,0.1,0.7,0.2,1.2c0.2,0.6,0.4,1.3,0.9,1.3
					c0.6,0,1-0.3,1-0.9c0.1-0.9,0.8-2.6,2.2-5.2c1.2-2.1,1.8-3,2-3.4c0,0.1,0,0.2,0,0.2c-0.1,2.5-0.2,4-0.2,4.5
					c0.1,1.9,0.6,2.9,1.6,2.9c0.9,0,2-1,3.5-3c0.1-0.2,1-1.6,2.7-4.2c0.2-0.3,0.3-0.5,0.4-0.7c0,0.1,0,0.2,0,0.2
					c0.1,0.4,0.1,1,0.1,1.8v1.5l0,0c0,0.9,0.2,1.8,0.7,2.8c0.6,1.4,1.4,2.1,2.5,2.1c0.3,0,0.7-0.1,1.2-0.4c0.6-0.4,0.9-0.8,0.9-1.4
					C232.4,70.5,232.1,70.1,231.6,70.1z"/>
			</g>
			<g>
				<path class="st5" d="M237.4,71.9l-0.2-0.2l-0.2,0.1c-0.3,0.1-0.5,0.3-0.7,0.5h-0.1c-0.3,0-0.6-0.3-0.8-1l-0.4-1.8
					c0-0.2,0-0.5,0-1.5c0.1-1.7,0.3-3,0.6-3.6c0.4-1,0.4-1.3,0.4-1.5c0-0.7-0.4-1.2-1-1.2c-0.8,0-1.3,1-1.7,3.2
					c-0.2,1.4-0.3,2.5-0.3,3.5s0.2,2.1,0.5,3.2c0.5,1.6,1.4,2.5,2.5,2.5c0.3,0,0.6-0.1,0.9-0.3c0.4-0.3,0.7-0.6,0.7-1
					C237.8,72.4,237.7,72.2,237.4,71.9z"/>
			</g>
			<g>
				<path class="st5" d="M235.3,58.8c0.7,0,1.2-0.4,1.2-1.3c0-0.8-0.4-1.2-1.2-1.2c-0.3,0-0.7,0.2-0.9,0.4s-0.3,0.5-0.3,0.8
					s0.1,0.5,0.3,0.8C234.7,58.7,235,58.8,235.3,58.8z"/>
			</g>
			<g>
				<path class="st5" d="M243.5,72.9l-0.4-0.4h-0.7l-0.1,0.2c-0.1,0.1-0.1,0.1-0.3,0.1c-1,0-1.6-1.8-1.6-5.3c0-3.1,0.2-5.9,0.4-8.3
					c0.1-0.5,0.2-1.4,0.4-2.5l0.2-1.1c0.1-0.3,0.1-0.4,0.1-0.5V55c0-0.8-0.4-1.2-1.2-1.2c-0.5,0-1,0.4-1.5,4.9
					c-0.3,2.7-0.4,5.5-0.4,8.2c0,0.5,0,1,0,1.4c0.1,2,0.5,3.5,1.2,4.6c0.6,1,1.4,1.5,2.3,1.5c0.6,0,1.2-0.3,1.6-0.8l0.1-0.1v-0.1
					C243.6,73.2,243.6,73.1,243.5,72.9L243.5,72.9z"/>
			</g>
			<g>
				<path class="st5" d="M247.8,71.9l-0.2-0.2l-0.2,0.1c-0.3,0.1-0.5,0.3-0.7,0.5h-0.1c-0.3,0-0.6-0.3-0.8-1l-0.4-1.8
					c0-0.2,0-0.5,0-1.5c0.1-1.7,0.3-3,0.6-3.6c0.4-1,0.4-1.3,0.4-1.5c0-0.7-0.4-1.2-1-1.2c-0.8,0-1.3,1-1.7,3.2
					c-0.2,1.4-0.3,2.5-0.3,3.5s0.2,2.1,0.5,3.2c0.5,1.6,1.4,2.5,2.5,2.5c0.3,0,0.6-0.1,0.9-0.3c0.5-0.3,0.7-0.6,0.7-1
					C248.2,72.4,248.1,72.2,247.8,71.9z"/>
			</g>
			<g>
				<path class="st5" d="M245.7,58.8c0.7,0,1.2-0.4,1.2-1.3c0-0.8-0.4-1.2-1.2-1.2c-0.3,0-0.7,0.2-0.9,0.4s-0.3,0.5-0.3,0.8
					s0.1,0.5,0.3,0.8C245.1,58.7,245.3,58.8,245.7,58.8z"/>
			</g>
			<g>
				<path class="st5" d="M261.4,69.8c-0.5,0-0.9,0.3-1.1,0.9l-0.1,0.1c-0.1,0.1-0.2,0.1-0.3,0.1c-0.3-0.1-0.4-0.6-0.4-1.4
					c0-0.5,0.3-2.1,0.7-4.8c0.1-0.4,0.1-0.7-0.2-1c0,0,0-0.1-0.1-0.1c0.3-0.3,0.5-0.7,0.5-1.6s-0.2-1.5-0.7-1.9
					c-0.3-0.2-0.6-0.3-0.9-0.3c-0.9,0-1.9,0.5-3.2,1.7c-1.6,1.4-3.1,3.1-4.4,5.2c-1.4,2.2-2.1,4-2.1,5.4c0,0.7,0.2,1.3,0.7,1.6
					c0.3,0.2,0.6,0.3,0.9,0.3c1,0,2.2-0.7,3.9-2.2c1-0.9,1.9-1.9,2.7-3c0.1,1.9,0.6,3,1.6,3.4c0.3,0.1,0.5,0.2,0.8,0.2
					c0.9,0,1.6-0.5,2-1.4c0.1-0.2,0.1-0.4,0.1-0.5C262.1,70.1,261.8,69.8,261.4,69.8z M258.4,63.6c-0.2,0.2-0.3,0.4-0.3,0.8
					c-0.1,0.6-0.4,1.3-0.9,2.1c-0.1,0.1-0.5,0.7-2.1,2.6c-2.2,2.7-3.3,3.3-3.9,3.3c-0.1,0-0.2,0-0.2-0.2c0-0.7,0.5-2.3,3.3-5.9
					c2.3-3.1,3.6-4.1,4.3-4.4c0,0.3-0.1,0.7-0.2,1c-0.1,0.1-0.1,0.2-0.1,0.3C258.3,63.3,258.4,63.5,258.4,63.6z"/>
			</g>
		</g>
	</g>
</g>
</svg>
